<svg width="30" height="30" viewBox="0 0 30 30" fill="current" xmlns="http://www.w3.org/2000/svg">
<g clip-path="url(#clip0)">
<path d="M21.0008 1.24869C20.5559 1.0544 20.0378 1.25748 19.8434 1.70221C19.6491 2.14694 19.8521 2.66514 20.2969 2.85944C25.1233 4.96834 28.2419 9.73377 28.2422 14.9998C28.2422 20.266 25.1233 25.0315 20.2966 27.1405C19.8517 27.3348 19.6487 27.853 19.843 28.2978C19.9874 28.6281 20.3102 28.825 20.6489 28.825C20.7664 28.825 20.8858 28.8014 21.0004 28.7512C26.4674 26.3625 30 20.9648 30 14.9997C29.9998 9.03498 26.4673 3.63739 21.0008 1.24869Z" fill="#733999"/>
<path d="M21.235 8.03042C20.8734 7.70669 20.3178 7.73733 19.994 8.09897C19.6702 8.46073 19.7009 9.01632 20.0626 9.34011C21.6711 10.78 22.5936 12.8429 22.5936 14.9999C22.5936 17.1569 21.6711 19.2197 20.0626 20.6597C19.7009 20.9834 19.6702 21.5391 19.994 21.9007C20.1676 22.0947 20.4078 22.1935 20.6491 22.1935C20.8579 22.1935 21.0673 22.1195 21.235 21.9694C23.2155 20.1965 24.3515 17.6561 24.3515 14.9999C24.3515 12.3436 23.2155 9.80329 21.235 8.03042Z" fill="#733999"/>
<path d="M15.3972 3.38962C15.1018 3.23991 14.7473 3.26909 14.4802 3.46491L7.6517 8.47239H0.878906C0.393516 8.47239 0 8.86585 0 9.3513V20.6482C0 21.1336 0.393516 21.5271 0.878906 21.5271H7.6517L14.4802 26.5347C14.6339 26.6475 14.8164 26.7049 15.0001 26.7049C15.1356 26.7049 15.2718 26.6735 15.3972 26.6099C15.6927 26.4602 15.8789 26.1572 15.8789 25.826V4.17366C15.8789 3.84243 15.6927 3.53927 15.3972 3.38962Z" fill="#733999"/>
</g>
<defs>
<clipPath id="clip0">
<rect width="30" height="30" fill="inherit"/>
</clipPath>
</defs>
</svg>
