<svg width="30" height="30" viewBox="0 0 30 30" fill="none" xmlns="http://www.w3.org/2000/svg">
<path d="M14.9999 0C10.9932 0 7.22648 1.56027 4.39339 4.39336C-1.45516 10.2418 -1.45516 19.758 4.39321 25.6065C7.2263 28.4397 10.9932 30 14.9999 30C19.0065 30 22.7734 28.4397 25.6065 25.6065C31.455 19.758 31.455 10.2418 25.6065 4.39336C22.7734 1.56027 19.0065 0 14.9999 0ZM21.7496 21.7495C21.4832 22.0158 21.1343 22.149 20.7853 22.149C20.4364 22.149 20.0873 22.0158 19.8212 21.7495L14.9999 16.9285L10.1788 21.7496C9.91239 22.0159 9.56348 22.1491 9.21448 22.1491C8.86557 22.1491 8.51648 22.0159 8.25039 21.7496C7.71775 21.2172 7.71775 20.3537 8.25039 19.8212L13.0715 15L8.2503 10.1788C7.71766 9.64636 7.71766 8.78291 8.2503 8.25036C8.78275 7.71791 9.64621 7.71791 10.1788 8.25036L14.9999 13.0715L19.8209 8.25036C20.3534 7.71791 21.2168 7.71791 21.7494 8.25036C22.282 8.78282 22.282 9.64627 21.7494 10.1788L16.9284 15L21.7496 19.8211C22.2821 20.3536 22.2821 21.2171 21.7496 21.7495Z" fill="#733999"/>
</svg>
