<svg width="20" height="21" viewBox="0 0 20 21" fill="none" xmlns="http://www.w3.org/2000/svg">
<path d="M20 10.0303C20 4.51627 15.514 0.0302734 10 0.0302734C4.486 0.0302734 0 4.51627 0 10.0303C0 15.121 3.82375 19.3353 8.75 19.9523C8.75 19.9523 9.30967 20.0303 10 20.0303C10.6903 20.0303 11.25 19.9523 11.25 19.9523C16.1763 19.3353 20 15.121 20 10.0303ZM10 17.5303C5.8645 17.5303 2.5 14.1658 2.5 10.0303C2.5 5.89477 5.8645 2.53027 10 2.53027C14.1355 2.53027 17.5 5.89477 17.5 10.0303C17.5 14.1658 14.1355 17.5303 10 17.5303Z" fill="#733999"/>
<path d="M13.0178 6.49486L8.75001 10.7626L6.98226 8.99486C6.49426 8.50669 5.70276 8.50669 5.21451 8.99486C4.72635 9.48294 4.72635 10.2744 5.21451 10.7626L7.8661 13.4143C8.10051 13.6486 8.41843 13.7804 8.75001 13.7804C9.0816 13.7804 9.39951 13.6486 9.63385 13.4142L14.7854 8.26253C15.2736 7.77436 15.2736 6.98294 14.7854 6.49478C14.2973 6.00661 13.5058 6.00661 13.0178 6.49486Z" fill="#733999"/>
</svg>
