<svg width="30" height="30" viewBox="0 0 30 30" fill="none" xmlns="http://www.w3.org/2000/svg">
<path d="M12.5022 1.81091H17.5161V2.65457H19.3268V1.69281C19.327 0.75943 18.568 0 17.6351 0H12.3832C11.4503 0 10.6913 0.75943 10.6913 1.69281V2.65457H12.5022V1.81091Z" fill="#733999"/>
<path d="M23.5084 9.8291H6.50983C6.04406 9.8291 5.67739 10.2264 5.71493 10.6908L7.13605 28.2635C7.21525 29.2445 8.0335 30 9.01654 30H21.0015C21.9845 30 22.8028 29.2445 22.882 28.2632L24.3031 10.6908C24.3409 10.2264 23.9742 9.8291 23.5084 9.8291ZM10.6258 28.1257C10.6068 28.1268 10.5878 28.1275 10.569 28.1275C10.0943 28.1275 9.69586 27.7579 9.66634 27.2777L8.77576 12.8515C8.74509 12.3523 9.1248 11.9227 9.62377 11.892C10.1211 11.8618 10.5526 12.2406 10.5832 12.74L11.4736 27.1662C11.5045 27.6654 11.1248 28.0948 10.6258 28.1257ZM15.9246 27.2221C15.9246 27.7219 15.5193 28.1273 15.0192 28.1273C14.5191 28.1273 14.1137 27.7219 14.1137 27.2221V12.7956C14.1137 12.2955 14.5191 11.8902 15.0192 11.8902C15.5191 11.8902 15.9246 12.2955 15.9246 12.7956V27.2221ZM21.2425 12.849L20.3922 27.2752C20.364 27.7563 19.9649 28.1273 19.4893 28.1273C19.4714 28.1273 19.4533 28.1268 19.4352 28.1259C18.936 28.0964 18.5552 27.6679 18.5847 27.1687L19.4348 12.7423C19.4641 12.2431 19.8912 11.8623 20.3917 11.8918C20.8909 11.9211 21.2718 12.3498 21.2425 12.849Z" fill="#733999"/>
<path d="M26.6396 7.035L26.045 5.25247C25.8882 4.78258 25.4483 4.46558 24.9527 4.46558H5.06541C4.57011 4.46558 4.12997 4.78258 3.97342 5.25247L3.37878 7.035C3.26411 7.37878 3.41335 7.72943 3.69189 7.9043C3.80542 7.97548 3.93977 8.01828 4.0874 8.01828H25.931C26.0786 8.01828 26.2132 7.97548 26.3265 7.90407C26.605 7.7292 26.7543 7.37856 26.6396 7.035Z" fill="#733999"/>
</svg>
