<svg width="48" height="48" viewBox="0 0 48 48" fill="none" xmlns="http://www.w3.org/2000/svg">
<g filter="url(#filter0_d)">
<path d="M20.0016 40C31.03 40 39.9704 31.0457 39.9704 20C39.9704 8.95431 31.03 0 20.0016 0C8.97311 0 0.0327759 8.95431 0.0327759 20C0.0327759 31.0457 8.97311 40 20.0016 40Z" fill="#733999"/>
<path d="M23.1611 29.5961H16.8243C16.6766 29.5961 16.5571 29.4764 16.5571 29.3284V26.1049C16.5571 25.9569 16.6766 25.8372 16.8243 25.8372H23.1611C23.3089 25.8372 23.4284 25.9569 23.4284 26.1049V29.3284C23.4284 29.4764 23.3081 29.5961 23.1611 29.5961Z" fill="white"/>
<path d="M29.9169 30.2333H10.0684C9.69054 30.2333 9.38371 29.926 9.38371 29.5475V29.1925C9.38371 28.8141 9.69054 28.5067 10.0684 28.5067H29.9161C30.294 28.5067 30.6008 28.8141 30.6008 29.1925V29.5475C30.6016 29.926 30.2948 30.2333 29.9169 30.2333Z" fill="white"/>
<path d="M32.0284 11.5191C32.0284 10.7355 31.3937 10.0999 30.6113 10.0999H9.46448C8.68207 10.0999 8.04742 10.7355 8.04742 11.5191V24.612C8.04742 25.3956 8.68207 26.0313 9.46448 26.0313H30.6113C31.3937 26.0313 32.0284 25.3956 32.0284 24.612V11.5191ZM30.898 23.5607C30.898 24.3443 30.2633 24.98 29.4809 24.98H10.8371C10.0547 24.98 9.42007 24.3443 9.42007 23.5607V12.7322C9.42007 11.9485 10.0547 11.3129 10.8371 11.3129H29.4809C30.2633 11.3129 30.898 11.9485 30.898 12.7322V23.5607Z" fill="white"/>
<path d="M26.3998 14.6796C26.3989 14.6796 26.398 14.6796 26.3972 14.6796H25.5224V14.3798C25.5271 14.2611 25.4505 14.1545 25.3366 14.1213C24.7293 13.9619 24.104 13.882 23.4761 13.8836C22.444 13.8836 21.0376 14.1162 19.9977 15.1758C18.9655 14.1058 17.5488 13.8836 16.5192 13.8836C15.8914 13.882 15.266 13.9619 14.6587 14.1213C14.5449 14.1545 14.4682 14.2611 14.4729 14.3798V14.677H13.6033C13.4608 14.677 13.3453 14.7927 13.3453 14.9355V23.1903C13.3453 23.333 13.4608 23.4487 13.6033 23.4487C13.6477 23.4486 13.6912 23.437 13.7298 23.4151C13.7556 23.4022 16.336 21.9885 19.9383 22.8982H19.977H20.0003C20.0208 22.9007 20.0416 22.9007 20.0622 22.8982C23.6748 21.9807 26.2553 23.3919 26.2708 23.4151C26.3506 23.4613 26.449 23.4613 26.5288 23.4151C26.6082 23.3693 26.6573 23.2846 26.6578 23.1929V14.938C26.6578 14.7953 26.5423 14.6796 26.3998 14.6796ZM13.8614 22.7793V15.1965H14.4781V21.6784C14.4765 21.8211 14.5907 21.9381 14.7332 21.9397C14.7472 21.9399 14.7611 21.9389 14.7749 21.9368C15.3087 21.8552 15.8477 21.812 16.3876 21.8076C17.1356 21.7946 17.8805 21.9073 18.5913 22.141C16.9861 21.9466 15.3579 22.1663 13.8614 22.7793ZM16.3876 21.2933C15.9183 21.2943 15.4495 21.3245 14.9839 21.3837V14.584C15.4863 14.4719 15.9993 14.4146 16.5141 14.4134C17.4792 14.4134 18.8107 14.6357 19.7345 15.6798L19.7422 22.1177C19.2055 21.7662 18.1578 21.2933 16.3876 21.2933ZM20.2583 15.6798C21.1821 14.646 22.5136 14.4134 23.4787 14.4134C23.9934 14.4149 24.5065 14.4721 25.0089 14.584V21.3837C24.5459 21.324 24.0797 21.2929 23.6129 21.2907C21.853 21.2907 20.8028 21.7636 20.2583 22.1151V15.6798ZM26.1392 22.7793C24.6394 22.1646 23.0075 21.9449 21.3989 22.141C22.113 21.9064 22.8615 21.7937 23.6129 21.8076C24.1563 21.8106 24.6987 21.8529 25.236 21.9342C25.3769 21.9556 25.5085 21.8586 25.5298 21.7175C25.5319 21.7037 25.5329 21.6897 25.5327 21.6758V15.1965H26.1495L26.1392 22.7793Z" fill="white"/>
</g>
<defs>
<filter id="filter0_d" x="0.0327759" y="0" width="47.9376" height="48" filterUnits="userSpaceOnUse" color-interpolation-filters="sRGB">
<feFlood flood-opacity="0" result="BackgroundImageFix"/>
<feColorMatrix in="SourceAlpha" type="matrix" values="0 0 0 0 0 0 0 0 0 0 0 0 0 0 0 0 0 0 127 0"/>
<feOffset dx="4" dy="4"/>
<feGaussianBlur stdDeviation="2"/>
<feColorMatrix type="matrix" values="0 0 0 0 0 0 0 0 0 0 0 0 0 0 0 0 0 0 0.25 0"/>
<feBlend mode="normal" in2="BackgroundImageFix" result="effect1_dropShadow"/>
<feBlend mode="normal" in="SourceGraphic" in2="effect1_dropShadow" result="shape"/>
</filter>
</defs>
</svg>
