<svg xmlns="http://www.w3.org/2000/svg" fill="none" width="30" height="30" viewBox="0 0 30 30"><path fill="#733999" d="M15.0001 0C10.9933 0 7.2266 1.5603 4.3935 4.3934-1.455 10.2418-1.455 19.758 4.3933 25.6065 7.2264 28.4397 10.9933 30 15.0001 30c4.0065 0 7.7734-1.5603 10.6065-4.3935 5.8486-5.8485 5.8486-15.3647 0-21.2131C22.7735 1.5603 19.0066 0 15.0001 0zm6.7496 21.7495a1.3597 1.3597 0 01-.9643.3995c-.3489 0-.698-.1332-.9641-.3995l-4.8212-4.821-4.8212 4.8211a1.3597 1.3597 0 01-.9643.3995c-.349 0-.698-.1332-.964-.3995-.5327-.5324-.5327-1.3959 0-1.9284L13.0715 15l-4.8212-4.8212c-.5326-.5324-.5326-1.3959 0-1.9284.5325-.5325 1.396-.5325 1.9285 0l4.8212 4.8211 4.821-4.8211c.5324-.5325 1.3959-.5325 1.9284 0 .5326.5324.5326 1.3959 0 1.9284L16.9285 15l4.8212 4.8211c.5325.5325.5325 1.396 0 1.9284z"/></svg>