<svg width="40" height="40" viewBox="0 0 40 40" fill="none" xmlns="http://www.w3.org/2000/svg">
<rect width="40" height="40" rx="20" fill="#733999"/>
<path d="M29.7994 10.0103C28.6665 9.33047 27.4586 9 26.1068 9C24.4895 9 22.902 9.47622 21.3667 9.93677C19.8669 10.3867 18.4503 10.8116 17.0481 10.8117C17.0479 10.8117 17.0478 10.8117 17.0476 10.8117C16.1101 10.8117 15.2613 10.6133 14.4648 10.2071V9.73242C14.4648 9.32793 14.1369 9 13.7324 9C13.3279 9 13 9.32793 13 9.73242V10.6382V20.5941V33.2676C13 33.6721 13.3279 34 13.7324 34C14.1369 34 14.4648 33.6721 14.4648 33.2676V21.7663C15.2738 22.0788 16.1275 22.2324 17.0481 22.2324C18.6654 22.2324 20.2528 21.7562 21.7879 21.2957C23.2878 20.8457 24.7046 20.4207 26.1068 20.4207C27.1855 20.4207 28.1468 20.6829 29.0457 21.2222C29.2719 21.358 29.5537 21.3616 29.7834 21.2315C30.013 21.1015 30.1549 20.8581 30.1549 20.5942V10.6383C30.155 10.381 30.02 10.1426 29.7994 10.0103ZM21.3671 19.8926C19.8671 20.3426 18.4504 20.7676 17.0482 20.7676C16.1104 20.7676 15.2614 20.5694 14.4649 20.1633V11.8108C15.2737 12.1233 16.1273 12.2766 17.0476 12.2766C17.0478 12.2766 17.0481 12.2766 17.0483 12.2766C18.6654 12.2765 20.2527 11.8003 21.7877 11.3398C23.2876 10.8898 24.7045 10.4648 26.1068 10.4648C27.0446 10.4648 27.8936 10.663 28.6901 11.0691V19.4216C27.8812 19.1091 27.0274 18.9559 26.1068 18.9559C24.4896 18.9559 22.9022 19.4321 21.3671 19.8926Z" fill="white"/>
</svg>
