<svg width="49" height="48" viewBox="0 0 49 48" fill="none" xmlns="http://www.w3.org/2000/svg">
<g filter="url(#filter0_d)">
<path d="M20.312 40C31.3405 40 40.2808 31.0457 40.2808 20C40.2808 8.95431 31.3405 0 20.312 0C9.28354 0 0.343201 8.95431 0.343201 20C0.343201 31.0457 9.28354 40 20.312 40Z" fill="#733999"/>
<path d="M21.9907 22.5838C21.2544 22.5838 20.5115 22.5774 19.7687 22.5927C19.6887 22.5943 19.5813 22.7092 19.5369 22.7949C18.9023 24.0233 17.8655 24.6501 16.4388 24.6492C15.6499 24.6484 14.9523 24.3622 14.3265 23.8478C14.2692 23.9368 14.2183 24.0152 14.1683 24.0945C13.6749 24.8781 13.2106 25.6803 12.681 26.4413C12.1174 27.2508 11.364 27.8549 10.3604 28.1404C9.08623 28.5019 7.01272 27.3463 7.16614 25.6739C7.2711 24.532 7.37769 23.3901 7.47539 22.2474C7.61669 20.6001 7.76445 18.9528 7.88314 17.3038C7.98165 15.9371 8.60903 14.868 9.74994 14.0544C9.8646 13.9728 9.95342 13.8345 10.0083 13.7051C10.098 13.4916 10.1674 13.2676 10.2126 13.042C10.3361 12.4209 10.7786 12.0893 11.36 11.9276C12.2522 11.6793 13.1291 11.7933 13.9672 12.158C14.383 12.3392 14.6317 12.6594 14.706 13.0978C14.7432 13.3169 14.7892 13.5345 14.8279 13.7536C14.899 14.1563 15.0928 14.3157 15.5159 14.3157C19.0694 14.3157 22.623 14.3157 26.1765 14.3157C26.5043 14.3157 26.7207 14.1386 26.7805 13.8248C26.8281 13.5805 26.8854 13.3371 26.925 13.0921C26.9961 12.6497 27.2512 12.336 27.6654 12.1548C28.4753 11.8014 29.3239 11.6898 30.1927 11.9082C30.8249 12.0675 31.2957 12.4063 31.4208 13.0727C31.5218 13.6097 31.7842 14.0156 32.2573 14.3771C33.1996 15.0985 33.6566 16.1013 33.7438 17.2561C33.8415 18.55 33.9417 19.8439 34.0539 21.1371C34.1831 22.634 34.3349 24.1293 34.46 25.6262C34.5254 26.4098 34.2089 27.0495 33.5702 27.5412C32.4786 28.3822 31.3667 28.4226 30.2105 27.6633C29.6751 27.3123 29.2189 26.8813 28.8774 26.3532C28.3986 25.6124 27.9391 24.8611 27.4708 24.1147C27.4192 24.0314 27.3675 23.9489 27.3142 23.864C25.3965 25.3835 22.7756 24.5716 21.9907 22.5838Z" fill="white"/>
<path d="M12.4879 20.5127C14.2506 20.5119 15.6822 19.0878 15.6813 17.3378C15.6805 15.5457 14.253 14.1038 12.4823 14.1054C10.7116 14.107 9.284 15.553 9.28562 17.3434C9.28642 19.0886 10.7269 20.5135 12.4879 20.5127Z" fill="#733999"/>
<path d="M29.1503 20.5111C30.9275 20.5119 32.3494 19.0935 32.3534 17.3175C32.3574 15.5497 30.9194 14.103 29.1616 14.1054C27.3804 14.1078 25.9593 15.54 25.9601 17.3337C25.9601 19.087 27.3901 20.5111 29.1503 20.5111Z" fill="#733999"/>
<path d="M16.7173 19.6385C15.6466 19.6426 14.7851 20.5055 14.7899 21.5689C14.7948 22.6178 15.6886 23.4863 16.7504 23.4734C17.796 23.4605 18.66 22.6024 18.6608 21.5762C18.6616 20.4893 17.8049 19.6345 16.7173 19.6385Z" fill="#733999"/>
<path d="M24.9032 19.6385C25.969 19.6385 26.8224 20.4788 26.8297 21.5357C26.837 22.6105 25.9577 23.4863 24.883 23.475C23.8244 23.4637 22.9685 22.6048 22.9701 21.5551C22.9718 20.4812 23.8212 19.6385 24.9032 19.6385Z" fill="#733999"/>
<path d="M10.3619 18.0543C10.3619 17.5391 10.3619 17.0652 10.3619 16.563C10.6865 16.563 10.9941 16.559 11.301 16.5663C11.3551 16.5679 11.4188 16.6027 11.4608 16.6415C11.6877 16.8509 11.909 17.0661 12.1746 17.3208C11.9138 17.565 11.6853 17.7834 11.4503 17.9936C11.4092 18.03 11.3397 18.0502 11.2832 18.051C10.9828 18.0575 10.6833 18.0543 10.3619 18.0543Z" fill="white"/>
<path d="M14.4629 18.0543C14.4629 17.5391 14.4629 17.0652 14.4629 16.563C14.1383 16.563 13.8306 16.559 13.5238 16.5663C13.4697 16.5679 13.4059 16.6027 13.3639 16.6415C13.137 16.8509 12.9158 17.0661 12.6502 17.3208C12.911 17.565 13.1395 17.7834 13.3744 17.9936C13.4156 18.03 13.4851 18.0502 13.5416 18.051C13.8419 18.0575 14.1415 18.0543 14.4629 18.0543Z" fill="white"/>
<path d="M11.6723 15.3022C12.1867 15.3022 12.6598 15.3022 13.1613 15.3022C13.1613 15.6273 13.1653 15.9355 13.158 16.2428C13.1564 16.2969 13.1217 16.3608 13.0829 16.4029C12.8738 16.6301 12.659 16.8517 12.4047 17.1178C12.1608 16.8566 11.9428 16.6277 11.7329 16.3924C11.6966 16.3511 11.6764 16.2816 11.6756 16.225C11.6691 15.9241 11.6723 15.6233 11.6723 15.3022Z" fill="white"/>
<path d="M11.6723 19.3223C12.1867 19.3223 12.6598 19.3223 13.1613 19.3223C13.1613 18.9972 13.1653 18.6891 13.158 18.3818C13.1564 18.3276 13.1217 18.2637 13.0829 18.2216C12.8738 17.9944 12.659 17.7728 12.4047 17.5067C12.1608 17.768 11.9428 17.9968 11.7329 18.2321C11.6966 18.2734 11.6764 18.3429 11.6756 18.3995C11.6691 18.7004 11.6723 19.0004 11.6723 19.3223Z" fill="white"/>
<path d="M30.0077 19.0611C30.0077 19.527 29.6274 19.9103 29.1623 19.9135C28.6972 19.9167 28.3104 19.5383 28.3056 19.0749C28.3007 18.5961 28.6859 18.2071 29.1631 18.2096C29.6258 18.2104 30.0077 18.5953 30.0077 19.0611Z" fill="white"/>
<path d="M29.1607 14.6844C29.6266 14.6868 30.0077 15.0686 30.0077 15.5328C30.0077 16.0099 29.6137 16.3973 29.1389 16.3884C28.6762 16.3803 28.3008 15.9897 28.3064 15.5247C28.3113 15.0589 28.6948 14.6828 29.1607 14.6844Z" fill="white"/>
<path d="M27.4602 16.4563C27.9253 16.4595 28.3064 16.8429 28.3056 17.3071C28.3048 17.7826 27.9084 18.1708 27.4344 18.1611C26.9709 18.1505 26.5979 17.7616 26.6043 17.2949C26.61 16.8283 26.9927 16.4539 27.4602 16.4563Z" fill="white"/>
<path d="M30.8701 16.4457C31.3344 16.4498 31.7139 16.8339 31.7123 17.2997C31.7107 17.7647 31.328 18.1481 30.8637 18.1497C30.3889 18.1513 30.0013 17.7575 30.0102 17.2803C30.0191 16.8129 30.401 16.4417 30.8701 16.4457Z" fill="white"/>
</g>
<defs>
<filter id="filter0_d" x="0.343201" y="0" width="47.9376" height="48" filterUnits="userSpaceOnUse" color-interpolation-filters="sRGB">
<feFlood flood-opacity="0" result="BackgroundImageFix"/>
<feColorMatrix in="SourceAlpha" type="matrix" values="0 0 0 0 0 0 0 0 0 0 0 0 0 0 0 0 0 0 127 0"/>
<feOffset dx="4" dy="4"/>
<feGaussianBlur stdDeviation="2"/>
<feColorMatrix type="matrix" values="0 0 0 0 0 0 0 0 0 0 0 0 0 0 0 0 0 0 0.25 0"/>
<feBlend mode="normal" in2="BackgroundImageFix" result="effect1_dropShadow"/>
<feBlend mode="normal" in="SourceGraphic" in2="effect1_dropShadow" result="shape"/>
</filter>
</defs>
</svg>
