<svg width="18" height="18" viewBox="0 0 18 18" fill="none" xmlns="http://www.w3.org/2000/svg">
<g clip-path="url(#clip0)">
<rect width="18" height="18" rx="3" fill="#D7D7D7"/>
<path d="M9 7.9685C9.55874 7.9685 10.0895 7.90159 10.4946 7.78009L17.0703 5.80737C17.8387 5.57675 18 5.18627 18 4.89932C18 4.61241 17.8386 4.22193 17.0702 3.99145L10.4946 2.01872C10.0895 1.89722 9.55874 1.83032 9 1.83032C8.44133 1.83032 7.91058 1.89719 7.50544 2.01872L0.929848 3.99145C0.161297 4.22197 2.29633e-08 4.61241 2.29633e-08 4.89932C-7.02895e-05 5.18627 0.161297 5.57675 0.929777 5.80734L7.50551 7.78006C7.91058 7.90163 8.44133 7.9685 9 7.9685Z" fill="#733999"/>
<path d="M9.00004 9.02341C8.33186 9.02341 7.71022 8.94287 7.20246 8.7905L3.3891 7.64648V9.13588C3.3891 9.62947 3.70997 10.3248 5.23863 10.8344C6.2511 11.172 7.58697 11.3578 9 11.3578C10.413 11.3578 11.7489 11.172 12.7614 10.8344C14.29 10.3249 14.6109 9.62951 14.6109 9.13588V7.64648L10.7975 8.7905C10.2897 8.94287 9.66815 9.02341 9.00004 9.02341Z" fill="#733999"/>
<path d="M16.8703 10.6827V6.96851L15.8157 7.28491V10.6827C15.1598 10.9035 14.686 11.5239 14.686 12.2533V14.5126C14.686 15.4263 15.4294 16.1696 16.343 16.1696C17.2567 16.1696 18 15.4263 18 14.5126V12.2533C18 11.5239 17.5262 10.9035 16.8703 10.6827Z" fill="#733999"/>
</g>
<defs>
<clipPath id="clip0">
<rect width="18" height="18" rx="3" fill="white"/>
</clipPath>
</defs>
</svg>
