<svg width="30" height="26" viewBox="0 0 30 26" fill="none" xmlns="http://www.w3.org/2000/svg">
<path d="M27.3047 18.2737H18.5156C17.0795 18.2737 15.8021 18.9663 15 20.035C14.1979 18.9663 12.9205 18.2737 11.4844 18.2737H2.69531C2.21016 18.2737 1.81641 18.6674 1.81641 19.1526V20.0315H9.18691C11.2431 20.0315 13.2887 20.4388 15 21.5795C16.7108 20.4391 18.7561 20.0315 20.8131 20.0315H28.1836V19.1526C28.1836 18.6674 27.7898 18.2737 27.3047 18.2737Z" fill="#733999"/>
<path d="M13.3504 24.7253C12.3763 23.9435 10.9754 23.5471 9.18662 23.5471H0.878906C0.393516 23.5471 0 23.1536 0 22.6682C0 22.1828 0.393516 21.7893 0.878906 21.7893H9.18662C11.3856 21.7893 13.1567 22.3159 14.4507 23.3544C14.7714 23.6118 15.2285 23.6119 15.5493 23.3544C16.8433 22.3159 18.6144 21.7893 20.8134 21.7893H29.1211C29.6065 21.7893 30 22.1828 30 22.6682C30 23.1536 29.6065 23.5471 29.1211 23.5471H20.8134C19.0246 23.5471 17.6237 23.9435 16.6495 24.7253C15.6924 25.4935 14.3179 25.5018 13.3504 24.7253Z" fill="#733999"/>
<path d="M21.1523 9.59009V12.1213C21.1523 12.4541 20.9643 12.7588 20.6666 12.9077L16.7795 14.8506C16.3488 15.0662 15.9545 15.344 15.6076 15.6756C15.2678 16.0002 14.7322 16.0002 14.3924 15.6756C14.0455 15.344 13.6512 15.0662 13.2205 14.8506L9.3334 12.9077C9.03574 12.7588 8.84766 12.4541 8.84766 12.1213V9.59009L14.2758 11.1411C14.7398 11.2738 15.2433 11.2786 15.7242 11.1411L21.1523 9.59009Z" fill="#733999"/>
<path d="M24.668 8.58594V13.8793C24.668 14.3645 24.2742 14.7582 23.7891 14.7582C23.3039 14.7582 22.9102 14.3645 22.9102 13.8793V9.08809L24.668 8.58594Z" fill="#733999"/>
<path d="M14.7586 9.45084L2.45386 5.93521C1.60742 5.6934 1.60595 4.4873 2.45386 4.24502L14.7586 0.729395C14.9163 0.684277 15.0836 0.684277 15.2414 0.729395L27.5461 4.24502C28.3926 4.48684 28.394 5.69293 27.5461 5.93521L15.2414 9.45084C15.0843 9.49572 14.917 9.49607 14.7586 9.45084Z" fill="#733999"/>
</svg>
