<svg width="30" height="30" viewBox="0 0 30 30" fill="none" xmlns="http://www.w3.org/2000/svg">
<g clip-path="url(#clip0)">
<path d="M15 13.2811C15.9312 13.2811 16.8158 13.1696 17.4909 12.9671L28.4505 9.6792C29.7312 9.29482 30 8.64402 30 8.16578C30 7.6876 29.7311 7.0368 28.4504 6.65266L17.4909 3.36479C16.8159 3.16229 15.9312 3.05078 15 3.05078C14.0689 3.05078 13.1843 3.16223 12.5091 3.36479L1.54975 6.65266C0.268828 7.03686 3.82722e-08 7.6876 3.82722e-08 8.16578C-0.000117149 8.64402 0.268828 9.29482 1.54963 9.67914L12.5092 12.967C13.1843 13.1696 14.0689 13.2811 15 13.2811Z" fill="#733999"/>
<path d="M15 15.0385C13.8864 15.0385 12.8503 14.9043 12.004 14.6504L5.64844 12.7437V15.226C5.64844 16.0486 6.18322 17.2076 8.731 18.0569C10.4184 18.6194 12.6449 18.9292 14.9999 18.9292C17.355 18.9292 19.5814 18.6194 21.2689 18.0569C23.8167 17.2076 24.3514 16.0487 24.3514 15.226V12.7437L17.9958 14.6504C17.1495 14.9043 16.1135 15.0385 15 15.0385Z" fill="#733999"/>
<path d="M28.1172 17.8043V11.614L26.3594 12.1414V17.8043C25.2664 18.1724 24.4766 19.2064 24.4766 20.4219V24.1875C24.4766 25.7103 25.7156 26.9492 27.2383 26.9492C28.7611 26.9492 30 25.7104 30 24.1875V20.4219C30 19.2063 29.2103 18.1724 28.1172 17.8043Z" fill="#733999"/>
</g>
<defs>
<clipPath id="clip0">
<rect width="30" height="30" fill="white"/>
</clipPath>
</defs>
</svg>
