<svg width="40" height="40" viewBox="0 0 40 40" fill="none" xmlns="http://www.w3.org/2000/svg">
<rect width="40" height="40" rx="20" fill="#733999"/>
<path d="M32.3563 18.8978L28.6056 15.1471V10.1977C28.6056 9.79323 28.2777 9.4653 27.8732 9.4653H24.9436C24.5391 9.4653 24.2112 9.79323 24.2112 10.1977V10.7527L22.1027 8.64416C21.2401 7.78161 19.85 7.78977 18.998 8.64172L8.6442 18.8978C7.78532 19.7566 7.78522 21.146 8.6442 22.0049C9.27125 22.632 10.1679 22.7925 10.9301 22.524V32.2675C10.9301 32.672 11.2581 33 11.6626 33H29.3379C29.7424 33 30.0704 32.672 30.0704 32.2675V22.5239C30.8337 22.7931 31.73 22.6312 32.3563 22.0049C32.7714 21.5899 33 21.0381 33 20.4514C33 19.8646 32.7714 19.3129 32.3563 18.8978ZM25.6759 10.9301H27.1407V13.6822L25.6759 12.2174V10.9301ZM22.7463 31.5351H18.3518V25.5782H22.7463V31.5351ZM28.6055 31.5351H24.2111V24.8458C24.2111 24.4413 23.8832 24.1134 23.4787 24.1134H17.6194C17.2149 24.1134 16.887 24.4413 16.887 24.8458V31.5351H12.395V21.3681L20.5464 13.3021L28.6055 21.3613V31.5351ZM31.3206 20.9692C31.0341 21.2556 30.5714 21.2556 30.285 20.9692C29.9703 20.6545 21.8234 12.5076 21.067 11.7512C20.7821 11.4662 20.3203 11.465 20.0339 11.7484C19.5998 12.178 11.0743 20.6142 10.7155 20.9692C10.43 21.2547 9.96549 21.2547 9.67994 20.9692C9.39444 20.6837 9.39444 20.2191 9.6775 19.936L20.0313 9.67995C20.3178 9.39357 20.7804 9.39352 21.0669 9.67995C21.7081 10.3212 31.0264 19.6394 31.3206 19.9336C31.6061 20.2191 31.6061 20.6836 31.3206 20.9692Z" fill="white"/>
<path d="M20.5 17C19.1215 17 18 18.1215 18 19.5C18 20.8785 19.1215 22 20.5 22C21.8785 22 23 20.8785 23 19.5C23 18.1215 21.8785 17 20.5 17ZM20.5 20.75C19.8107 20.75 19.25 20.1892 19.25 19.5C19.25 18.8108 19.8108 18.25 20.5 18.25C21.1893 18.25 21.75 18.8108 21.75 19.5C21.75 20.1892 21.1893 20.75 20.5 20.75Z" fill="white"/>
</svg>
