<svg width="40" height="40" viewBox="0 0 40 40" fill="none" xmlns="http://www.w3.org/2000/svg">
<circle cx="20" cy="20" r="19" fill="#F945D1"/>
<path d="M19.9906 0C14.6483 0 9.62603 2.08036 5.84858 5.85782C-1.94949 13.6558 -1.94949 26.344 5.84833 34.1421C9.62579 37.9196 14.6483 40 19.9906 40C25.3327 40 30.3552 37.9196 34.1327 34.1421C41.9308 26.344 41.9308 13.6558 34.1327 5.85782C30.3552 2.08036 25.3327 0 19.9906 0ZM28.9902 28.9994C28.635 29.3544 28.1698 29.532 27.7045 29.532C27.2392 29.532 26.7738 29.3544 26.419 28.9994L19.9906 22.5713L13.5624 28.9995C13.2072 29.3545 12.742 29.5321 12.2767 29.5321C11.8115 29.5321 11.346 29.3545 10.9912 28.9995C10.2811 28.2896 10.2811 27.1383 10.9912 26.4282L17.4194 20L10.9911 13.5718C10.2809 12.8618 10.2809 11.7105 10.9911 11.0005C11.7011 10.2905 12.8523 10.2905 13.5624 11.0005L19.9906 17.4287L26.4186 11.0005C27.1286 10.2905 28.2798 10.2905 28.9899 11.0005C29.7001 11.7104 29.7001 12.8617 28.9899 13.5718L22.5619 20L28.9902 26.4281C29.7002 27.1382 29.7002 28.2895 28.9902 28.9994Z" fill="#733999"/>
</svg>
