<svg width="30" height="30" viewBox="0 0 30 30" fill="none" xmlns="http://www.w3.org/2000/svg">
<path d="M15 0C6.71582 0 0 6.71582 0 15C0 23.2842 6.71582 30 15 30C23.2842 30 30 23.2842 30 15C29.9907 6.71973 23.2803 0.00927738 15 0ZM15 29C7.26807 29 1 22.7319 1 15C1 7.26807 7.26807 1 15 1C22.7319 1 29 7.26807 29 15C28.9912 22.7283 22.7283 28.9912 15 29Z" fill="#733999"/>
<path d="M22.5 13.5H21V12C21 11.7239 20.7761 11.5 20.5 11.5H18.5C18.2239 11.5 18 11.7239 18 12V13.5H15.739C15.0085 11.4336 12.8955 10.1941 10.7354 10.5647C8.5752 10.9353 6.99634 12.8084 6.99634 15C6.99634 17.1917 8.5752 19.0647 10.7354 19.4354C12.8955 19.806 15.0085 18.5665 15.739 16.5H21.5C21.6904 16.501 21.865 16.3938 21.95 16.2234L22.95 14.2234C23.0276 14.0682 23.019 13.8836 22.9272 13.7359C22.8354 13.5884 22.6738 13.4991 22.5 13.5ZM21.1909 15.5H15.3689C15.1411 15.5 14.9419 15.6543 14.885 15.875C14.4443 17.5816 12.8035 18.6941 11.0552 18.4722C9.30664 18.2501 7.99609 16.7625 7.99609 15C7.99609 13.2376 9.30664 11.75 11.0552 11.5279C12.8035 11.3059 14.4443 12.4185 14.885 14.125C14.9419 14.3457 15.1411 14.5 15.3689 14.5H18.5C18.7761 14.5 19 14.2762 19 14V12.5H20V14C20 14.2762 20.2239 14.5 20.5 14.5H21.6909L21.1909 15.5Z" fill="#733999"/>
<path d="M11.5 13.5C10.6716 13.5 10 14.1716 10 15C10 15.8284 10.6716 16.5 11.5 16.5C12.3284 16.5 13 15.8284 13 15C13 14.1716 12.3284 13.5 11.5 13.5ZM11.5 15.5C11.2239 15.5 11 15.2761 11 15C11 14.7239 11.2239 14.5 11.5 14.5C11.7761 14.5 12 14.7239 12 15C12 15.2761 11.7761 15.5 11.5 15.5Z" fill="#733999"/>
</svg>
