<svg width="30" height="30" viewBox="0 0 30 30" fill="none" xmlns="http://www.w3.org/2000/svg">
<path d="M15 0C12.0921 0 9.72656 2.42408 9.72656 5.33203C9.72656 8.23998 12.0921 10.6055 15 10.6055C17.9079 10.6055 20.2734 8.23998 20.2734 5.33203C20.2734 2.42408 17.9079 0 15 0Z" fill="#733999"/>
<path d="M16.7578 10.6055H15H13.2422C12.0025 10.6055 10.8045 10.9259 9.71545 11.4711C11.5652 11.9702 13.3068 12.689 15 13.6608C16.6933 12.689 18.4348 11.9702 20.2846 11.4711C19.1955 10.9259 17.9976 10.6055 16.7578 10.6055Z" fill="#733999"/>
<path d="M28.2422 15.8789C27.2713 15.8789 26.4844 16.6659 26.4844 17.6367V21.1523C26.4844 22.1231 27.2713 22.9102 28.2422 22.9102C29.213 22.9102 30 22.1231 30 21.1523V17.6367C30 16.6659 29.213 15.8789 28.2422 15.8789Z" fill="#733999"/>
<path d="M1.75781 15.8789C0.786973 15.8789 0 16.6659 0 17.6367V21.1523C0 22.1231 0.786973 22.9102 1.75781 22.9102C2.72865 22.9102 3.51562 22.1231 3.51562 21.1523V17.6367C3.51562 16.6659 2.72865 15.8789 1.75781 15.8789Z" fill="#733999"/>
<path d="M2.63672 12.3633C2.15092 12.3633 1.75781 12.7564 1.75781 13.2422V14.1211C3.69674 14.1211 5.27344 15.6978 5.27344 17.6367V21.1523C5.27344 23.0913 3.69674 24.668 1.75781 24.668V25.5469C1.75781 26.0327 2.15092 26.4258 2.63672 26.4258C7.14264 26.4258 10.7455 27.8488 14.1211 30V15.2106C10.7303 13.2664 7.08416 12.3633 2.63672 12.3633Z" fill="#733999"/>
<path d="M28.2422 14.1211V13.2422C28.2422 12.7564 27.8491 12.3633 27.3633 12.3633C22.9158 12.3633 19.2697 13.2664 15.8789 15.2106V30C19.2545 27.8488 22.8574 26.4258 27.3633 26.4258C27.8491 26.4258 28.2422 26.0327 28.2422 25.5469V24.668C26.3033 24.668 24.7266 23.0913 24.7266 21.1523V17.6367C24.7266 15.6978 26.3033 14.1211 28.2422 14.1211Z" fill="#733999"/>
</svg>
