<svg width="40" height="40" viewBox="0 0 40 40" fill="none" xmlns="http://www.w3.org/2000/svg">
<rect width="40" height="40" rx="20" fill="#733999"/>
<path d="M32.2676 10.9297H30.0215V10.1973C30.0215 9.79277 29.6936 9.46484 29.2891 9.46484H23.4297C22.3549 9.46484 21.3869 9.93032 20.7164 10.6702C19.9554 9.69561 18.13 8 14.6406 8C14.2361 8 13.9082 8.32793 13.9082 8.73242V9.46484H11.7109C11.3064 9.46484 10.9785 9.79277 10.9785 10.1973V10.9297H8.73242C8.32793 10.9297 8 11.2576 8 11.6621V29.2402C8 29.6447 8.32793 29.9727 8.73242 29.9727H16.9634C17.2657 30.8252 18.0803 31.4375 19.0352 31.4375H21.9648C22.9197 31.4375 23.7343 30.8252 24.0366 29.9727H32.2676C32.6721 29.9727 33 29.6447 33 29.2402V11.6621C33 11.2576 32.6721 10.9297 32.2676 10.9297ZM23.4297 10.9297H28.5566V25.5781H21.9648C21.7081 25.5781 21.4617 25.6229 21.2324 25.7041C21.2324 25.5519 21.2324 13.335 21.2324 13.127C21.2324 11.9154 22.2181 10.9297 23.4297 10.9297ZM19.7676 11.8613V24.3447C18.8564 23.5873 17.4433 22.8226 15.373 22.6742V9.49639C16.6766 9.60684 17.7948 10.0175 18.7032 10.7239C19.2886 11.1791 19.626 11.641 19.7676 11.8613ZM12.4434 10.9297H13.9082V23.3809C13.9082 23.7854 14.2361 24.1133 14.6406 24.1133C16.262 24.1133 17.6288 24.5369 18.7032 25.3723C18.7916 25.4411 18.8741 25.5099 18.9514 25.5781H12.4434V10.9297ZM31.5352 28.5078H23.4297C23.0252 28.5078 22.6973 28.8357 22.6973 29.2402C22.6973 29.6441 22.3687 29.9727 21.9648 29.9727H19.0352C18.6313 29.9727 18.3027 29.6441 18.3027 29.2402C18.3027 28.8357 17.9748 28.5078 17.5703 28.5078H9.46484V12.3945H10.9785V26.3105C10.9785 26.715 11.3064 27.043 11.7109 27.043H19.0352C19.439 27.043 19.7676 27.3715 19.7676 27.7754C19.7676 28.1799 20.0955 28.5078 20.5 28.5078C20.9045 28.5078 21.2324 28.1799 21.2324 27.7754C21.2324 27.3715 21.561 27.043 21.9648 27.043H29.2891C29.6936 27.043 30.0215 26.715 30.0215 26.3105V12.3945H31.5352V28.5078Z" fill="white"/>
</svg>
