<svg width="30" height="30" viewBox="0 0 30 30" fill="none" xmlns="http://www.w3.org/2000/svg">
<path d="M15 0C6.72902 0 0 6.72902 0 15C0 23.271 6.72902 30 15 30C23.271 30 30 23.271 30 15C30 6.72902 23.271 0 15 0ZM12.7273 20.4546C12.7273 21.2077 12.1167 21.8182 11.3636 21.8182C10.6105 21.8182 9.99996 21.2077 9.99996 20.4546V9.54545C9.99996 8.79234 10.6105 8.1818 11.3636 8.1818C12.1167 8.1818 12.7273 8.79234 12.7273 9.54545V20.4546ZM20 20.4546C20 21.2077 19.3894 21.8182 18.6363 21.8182C17.8832 21.8182 17.2727 21.2077 17.2727 20.4546V9.54545C17.2727 8.79234 17.8832 8.1818 18.6363 8.1818C19.3894 8.1818 20 8.79234 20 9.54545V20.4546Z" fill="#733999"/>
</svg>
