<svg xmlns="http://www.w3.org/2000/svg" fill="none" viewBox="0 0 24 22"><g filter="url(#filter0_d)"><path fill="#650E7A" d="M14.656 7.3301c-.6545-1.021-1.7692-1.6307-2.9819-1.6307s-2.3274.6097-2.9818 1.6307L7.115 9.7905a2.2266 2.2266 0 00-.3492 1.3635c.0332.4839.2173.9344.5323 1.3033a2.2271 2.2271 0 001.2047.7285c.4729.1081.9576.062 1.4017-.1332l.0298-.0132a4.4066 4.4066 0 013.509.0132c.2876.1264.5922.1903.8996.1903.1671 0 .3352-.019.5018-.0569a2.2263 2.2263 0 001.2048-.7286 2.2259 2.2259 0 00.5327-1.3031 2.2266 2.2266 0 00-.3491-1.3639L14.656 7.3301z"/><path fill="#93247E" d="M7.54 7.327c.4691-.1802.8256-.5583 1.0036-1.0647.1694-.4818.1555-1.0258-.0392-1.5318-.1949-.5058-.5493-.9186-.9981-1.1626-.4714-.2562-.9893-.298-1.4577-.1174-.9424.3623-1.3749 1.5269-.964 2.5965.3283.8514 1.094 1.3889 1.868 1.3889.1976 0 .3958-.0351.5873-.109z"/><path fill="#56267D" d="M10.6001 5.3994c1.1781 0 2.1366-1.092 2.1366-2.4342 0-1.3425-.9585-2.4347-2.1366-2.4347-1.178 0-2.1363 1.0921-2.1363 2.4347 0 1.3422.9583 2.4342 2.1363 2.4342z"/><path fill="#93247E" d="M14.29 5.9974h.0001c.1812.0602.3661.089.5502.089.8592 0 1.6964-.6254 2.0159-1.5864.184-.5532.1719-1.1382-.034-1.647-.2155-.5326-.6149-.9193-1.1247-1.0887-.51-.1695-1.0614-.0988-1.5529.1988-.4695.2844-.8293.7457-1.0131 1.2989-.3878 1.167.1319 2.394 1.1585 2.7354z"/><path fill="#703886" d="M18.7893 5.7133l-.0003-.0003c-.8125-.6002-2.0275-.34-2.7088.5801-.6806.9207-.5741 2.1584.2371 2.759.2958.2191.6454.3239 1.0032.3239.6235 0 1.2723-.3183 1.7059-.9036.6805-.9206.5742-2.1583-.2371-2.759z"/></g><defs><filter id="filter0_d" width="22.5454" height="20.7124" x=".9293" y=".5305" color-interpolation-filters="sRGB" filterUnits="userSpaceOnUse"><feFlood flood-opacity="0" result="BackgroundImageFix"/><feColorMatrix in="SourceAlpha" values="0 0 0 0 0 0 0 0 0 0 0 0 0 0 0 0 0 0 127 0"/><feOffset dy="4"/><feGaussianBlur stdDeviation="2"/><feColorMatrix values="0 0 0 0 0.396078 0 0 0 0 0.054902 0 0 0 0 0.478431 0 0 0 0.24 0"/><feBlend in2="BackgroundImageFix" result="effect1_dropShadow"/><feBlend in="SourceGraphic" in2="effect1_dropShadow" result="shape"/></filter></defs></svg>