<svg width="32" height="32" viewBox="0 0 32 32" fill="none" xmlns="http://www.w3.org/2000/svg">
<g opacity="0.9" clip-path="url(#clip0)">
<path d="M14.8753 20.846C17.0491 19.6081 18.4251 17.378 18.556 14.8802C18.6869 12.3824 17.5515 10.0206 15.5191 8.56253L10.6218 5.04854C9.80933 4.46552 8.85095 4.16593 7.85104 4.18206C6.8509 4.19817 5.90304 4.52873 5.10927 5.13782C4.31616 5.7474 3.75234 6.57825 3.47868 7.54052C3.20501 8.50278 3.24777 9.50614 3.60188 10.4419L3.62587 10.5046C4.49678 12.8583 4.34979 15.4879 3.21989 17.7308C2.92852 18.3093 2.76398 18.9298 2.7308 19.563C2.71276 19.9072 2.7337 20.2555 2.79389 20.6027C2.96524 21.5883 3.43912 22.4735 4.16438 23.1629C4.88944 23.8518 5.79777 24.2799 6.79096 24.4007C7.78415 24.5215 8.76837 24.3237 9.63775 23.8289L14.8753 20.846Z" fill="#F9FC5F"/>
<path d="M15.6501 6.18939C15.9707 7.17523 16.7109 7.95021 17.7347 8.37149C18.7088 8.77252 19.8308 8.80267 20.8941 8.45616C21.9567 8.10938 22.8452 7.42389 23.3963 6.52591C23.9749 5.58261 24.1168 4.52038 23.7955 3.53611C23.1509 1.556 20.799 0.539562 18.5515 1.27049C16.7625 1.85469 15.5729 3.37357 15.4893 4.96783C15.468 5.37491 15.5188 5.78692 15.6501 6.18939Z" fill="#F9FC5F"/>
<path d="M19.2899 12.7003C19.1628 15.1268 21.3084 17.2188 24.0729 17.3637C26.8382 17.5086 29.1912 15.6523 29.3183 13.2259C29.4455 10.7996 27.2994 8.70779 24.5342 8.56287C21.7696 8.41799 19.4171 10.274 19.2899 12.7003Z" fill="#F9FC5F"/>
<path d="M17.6599 20.2358L17.6599 20.2361C17.5165 20.6028 17.4373 20.9805 17.4174 21.3597C17.3247 23.1293 18.5223 24.9213 20.4672 25.6831C21.5868 26.1218 22.7929 26.16 23.8631 25.7907C24.9835 25.4043 25.8229 24.6234 26.227 23.5917C26.631 22.5597 26.545 21.4163 25.985 20.3719C25.4501 19.3741 24.5388 18.5833 23.4192 18.1451C21.0574 17.2203 18.4738 18.1582 17.6599 20.2358Z" fill="#F9FC5F"/>
<path d="M17.7594 29.5337L17.7602 29.533C19.084 27.9245 18.6794 25.3938 16.8576 23.8913C15.0349 22.3901 12.4742 22.4757 11.1496 24.0817C10.6662 24.6674 10.4127 25.3761 10.3741 26.113C10.3068 27.3973 10.8923 28.7679 12.051 29.7243C13.8737 31.2253 16.4344 31.1399 17.7594 29.5337Z" fill="#F9FC5F"/>
</g>
<defs>
<clipPath id="clip0">
<rect width="30" height="30" fill="white" transform="translate(31.803 1.64404) rotate(93)"/>
</clipPath>
</defs>
</svg>
