<svg width="32" height="32" viewBox="0 0 32 32" fill="none" xmlns="http://www.w3.org/2000/svg">
<g clip-path="url(#clip0)">
<path d="M14.8753 10.757C17.0491 11.9949 18.4251 14.225 18.556 16.7228C18.6869 19.2206 17.5515 21.5824 15.5191 23.0405L10.6218 26.5545C9.80933 27.1375 8.85095 27.4371 7.85104 27.421C6.8509 27.4049 5.90304 27.0743 5.10927 26.4652C4.31616 25.8556 3.75234 25.0248 3.47868 24.0625C3.20501 23.1002 3.24777 22.0969 3.60188 21.1611L3.62587 21.0984C4.49678 18.7448 4.34979 16.1151 3.21989 13.8723C2.92852 13.2937 2.76398 12.6732 2.7308 12.04C2.71276 11.6958 2.7337 11.3475 2.79389 11.0003C2.96524 10.0147 3.43912 9.12949 4.16438 8.44011C4.88944 7.75119 5.79777 7.32312 6.79096 7.20231C7.78415 7.0815 8.76837 7.27929 9.63775 7.77417L14.8753 10.757Z" fill="#62FC5F"/>
<path d="M15.65 25.4136C15.9706 24.4278 16.7108 23.6528 17.7346 23.2315C18.7087 22.8305 19.8307 22.8004 20.8939 23.1469C21.9566 23.4936 22.8451 24.1791 23.3962 25.0771C23.9748 26.0204 24.1167 27.0826 23.7953 28.0669C23.1508 30.047 20.7989 31.0635 18.5513 30.3325C16.7623 29.7483 15.5727 28.2295 15.4892 26.6352C15.4679 26.2281 15.5187 25.8161 15.65 25.4136Z" fill="#62FC5F"/>
<path d="M19.2899 18.9027C19.1628 16.4763 21.3084 14.3843 24.0729 14.2394C26.8382 14.0944 29.1912 15.9507 29.3183 18.3772C29.4455 20.8034 27.2994 22.8952 24.5342 23.0402C21.7696 23.185 19.4171 21.329 19.2899 18.9027Z" fill="#62FC5F"/>
<path d="M17.6599 11.3672L17.6599 11.367C17.5165 11.0002 17.4373 10.6225 17.4174 10.2433C17.3247 8.47376 18.5223 6.68171 20.4672 5.91993C21.5868 5.48125 22.7929 5.44302 23.8631 5.81232C24.9835 6.1987 25.8229 6.97958 26.227 8.01133C26.631 9.04331 26.545 10.1867 25.985 11.2312C25.4501 12.2289 24.5388 13.0197 23.4192 13.4579C21.0574 14.3828 18.4738 13.4448 17.6599 11.3672Z" fill="#62FC5F"/>
<path d="M17.7593 2.06933L17.76 2.06998C19.0838 3.67855 18.6792 6.20922 16.8575 7.71173C15.0347 9.21291 12.474 9.12731 11.1495 7.52131C10.6661 6.93561 10.4126 6.22692 10.374 5.49002C10.3067 4.2057 10.8922 2.83513 12.0508 1.87871C13.8736 0.377755 16.4343 0.463125 17.7593 2.06933Z" fill="#62FC5F"/>
</g>
<defs>
<clipPath id="clip0">
<rect width="30" height="30" fill="white" transform="matrix(-0.052336 -0.99863 -0.99863 0.052336 31.803 29.959)"/>
</clipPath>
</defs>
</svg>
