<svg width="54" height="54" viewBox="0 0 54 54" fill="none" xmlns="http://www.w3.org/2000/svg">
<g opacity="0.9" clip-path="url(#clip0)">
<path d="M25.0615 35.3458C28.6843 33.2827 30.9778 29.5658 31.196 25.4028C31.4141 21.2398 29.5218 17.3035 26.1344 14.8733L17.9722 9.0167C16.6181 8.045 15.0208 7.54568 13.3543 7.57255C11.6874 7.59941 10.1076 8.15035 8.78469 9.16549C7.46285 10.1815 6.52315 11.5662 6.06704 13.17C5.61093 14.7738 5.6822 16.446 6.27239 18.0057L6.31237 18.1102C7.76387 22.0329 7.5189 26.4157 5.63574 30.1537C5.15011 31.118 4.87588 32.1522 4.82058 33.2074C4.79051 33.7811 4.82541 34.3617 4.92573 34.9403C5.21132 36.583 6.00112 38.0584 7.20989 39.2073C8.41831 40.3555 9.9322 41.069 11.5875 41.2703C13.2428 41.4717 14.8832 41.142 16.3322 40.3172L25.0615 35.3458Z" fill="#F9FC5F"/>
<path d="M26.3527 10.9181C26.887 12.5612 28.1207 13.8528 29.827 14.5549C31.4506 15.2233 33.3205 15.2736 35.0926 14.6961C36.8636 14.1181 38.3445 12.9756 39.263 11.479C40.2274 9.9068 40.4638 8.13643 39.9283 6.49597C38.854 3.19579 34.9342 1.50173 31.1883 2.71994C28.2066 3.69361 26.2239 6.22507 26.0847 8.88218C26.0491 9.56064 26.1339 10.2473 26.3527 10.9181Z" fill="#F9FC5F"/>
<path d="M32.4192 21.7699C32.2072 25.8141 35.7833 29.3007 40.3909 29.5422C44.9996 29.7837 48.9213 26.69 49.1332 22.6459C49.3452 18.6021 45.7683 15.1158 41.1596 14.8742C36.552 14.6328 32.6311 17.7262 32.4192 21.7699Z" fill="#F9FC5F"/>
<path d="M29.7024 34.3287L29.7024 34.3291C29.4633 34.9404 29.3314 35.5698 29.2982 36.2018C29.1437 39.1511 31.1397 42.1379 34.3812 43.4075C36.2471 44.1386 38.2573 44.2024 40.041 43.5869C41.9083 42.9429 43.3073 41.6414 43.9808 39.9218C44.6542 38.2019 44.5108 36.2962 43.5775 34.5555C42.686 32.8925 41.1671 31.5745 39.3011 30.8441C35.3649 29.3028 31.0589 30.866 29.7024 34.3287Z" fill="#F9FC5F"/>
<path d="M29.8682 49.8255L29.8694 49.8244C32.0757 47.1435 31.4014 42.9257 28.3651 40.4215C25.3272 37.9195 21.0594 38.0622 18.8518 40.7389C18.0462 41.715 17.6237 42.8962 17.5593 44.1243C17.4471 46.2649 18.423 48.5492 20.3541 50.1432C23.392 52.6448 27.6598 52.5025 29.8682 49.8255Z" fill="#F9FC5F"/>
</g>
<defs>
<clipPath id="clip0">
<rect width="50" height="50" fill="white" transform="translate(53.2742 3.34265) rotate(93)"/>
</clipPath>
</defs>
</svg>
