<svg width="54" height="54" viewBox="0 0 54 54" fill="none" xmlns="http://www.w3.org/2000/svg">
<g clip-path="url(#clip0)">
<path d="M25.0614 18.6542C28.6842 20.7173 30.9777 24.4342 31.1959 28.5972C31.414 32.7602 29.5216 36.6965 26.1343 39.1267L17.972 44.9833C16.618 45.955 15.0207 46.4543 13.3542 46.4274C11.6873 46.4006 10.1075 45.8497 8.78457 44.8345C7.46273 43.8185 6.52303 42.4338 6.06692 40.83C5.61081 39.2262 5.68208 37.554 6.27226 35.9943L6.31225 35.8898C7.76375 31.9671 7.51878 27.5843 5.63561 23.8463C5.14999 22.882 4.87576 21.8478 4.82046 20.7926C4.79039 20.2189 4.82529 19.6383 4.9256 19.0597C5.21119 17.417 6.001 15.9416 7.20976 14.7927C8.41819 13.6445 9.93207 12.931 11.5874 12.7297C13.2427 12.5283 14.8831 12.858 16.332 13.6828L25.0614 18.6542Z" fill="#FC5FE3"/>
<path d="M26.3527 43.0819C26.887 41.4388 28.1207 40.1472 29.827 39.4451C31.4506 38.7767 33.3205 38.7264 35.0926 39.3039C36.8636 39.8819 38.3445 41.0244 39.263 42.521C40.2274 44.0932 40.4638 45.8636 39.9283 47.504C38.854 50.8042 34.9342 52.4983 31.1883 51.2801C28.2066 50.3064 26.2239 47.7749 26.0847 45.1178C26.0491 44.4394 26.1339 43.7527 26.3527 43.0819Z" fill="#FC5FE3"/>
<path d="M32.4192 32.2301C32.2072 28.186 35.7833 24.6993 40.3909 24.4578C44.9996 24.2163 48.9213 27.31 49.1332 31.3541C49.3452 35.3979 45.7683 38.8842 41.1596 39.1258C36.552 39.3672 32.6311 36.2738 32.4192 32.2301Z" fill="#FC5FE3"/>
<path d="M29.7025 19.6713L29.7025 19.6709C29.4634 19.0596 29.3315 18.4302 29.2984 17.7982C29.1438 14.8489 31.1398 11.8621 34.3813 10.5925C36.2472 9.86136 38.2574 9.79765 40.0411 10.4132C41.9084 11.0571 43.3075 12.3586 43.9809 14.0782C44.6543 15.7981 44.5109 17.7038 43.5776 19.4445C42.6861 21.1075 41.1672 22.4255 39.3013 23.1559C35.365 24.6972 31.059 23.134 29.7025 19.6713Z" fill="#FC5FE3"/>
<path d="M29.8682 4.17452L29.8694 4.1756C32.0757 6.85654 31.4014 11.0743 28.3651 13.5785C25.3272 16.0805 21.0594 15.9378 18.8518 13.2611C18.0462 12.285 17.6237 11.1038 17.5593 9.87566C17.4471 7.73512 18.423 5.45085 20.3541 3.85681C23.392 1.35522 27.6598 1.4975 29.8682 4.17452Z" fill="#FC5FE3"/>
</g>
<defs>
<clipPath id="clip0">
<rect width="50" height="50" fill="white" transform="matrix(-0.052336 -0.99863 -0.99863 0.052336 53.2742 50.6573)"/>
</clipPath>
</defs>
</svg>
