<svg width="54" height="54" viewBox="0 0 54 54" fill="none" xmlns="http://www.w3.org/2000/svg">
<g clip-path="url(#clip0)">
<path d="M25.0615 18.6542C28.6843 20.7173 30.9778 24.4342 31.196 28.5972C31.4141 32.7602 29.5218 36.6965 26.1344 39.1266L17.9722 44.9833C16.6181 45.955 15.0208 46.4543 13.3543 46.4274C11.6874 46.4006 10.1076 45.8497 8.7847 44.8345C7.46285 43.8185 6.52316 42.4338 6.06704 40.83C5.61093 39.2262 5.6822 37.554 6.27239 35.9943L6.31237 35.8898C7.76388 31.9671 7.51891 27.5843 5.63574 23.8463C5.15011 22.882 4.87588 21.8478 4.82058 20.7926C4.79052 20.2189 4.82541 19.6383 4.92573 19.0597C5.21132 17.417 6.00112 15.9416 7.20989 14.7927C8.41831 13.6445 9.9322 12.931 11.5875 12.7297C13.2428 12.5283 14.8832 12.858 16.3322 13.6828L25.0615 18.6542Z" fill="#62FC5F"/>
<path d="M26.3527 43.0819C26.887 41.4388 28.1207 40.1472 29.827 39.4451C31.4506 38.7767 33.3205 38.7264 35.0926 39.3039C36.8636 39.8819 38.3445 41.0244 39.263 42.521C40.2274 44.0932 40.4638 45.8636 39.9283 47.504C38.854 50.8042 34.9342 52.4983 31.1883 51.2801C28.2066 50.3064 26.2239 47.7749 26.0847 45.1178C26.0491 44.4394 26.1339 43.7527 26.3527 43.0819Z" fill="#62FC5F"/>
<path d="M32.4192 32.2301C32.2072 28.1859 35.7833 24.6993 40.3909 24.4578C44.9996 24.2163 48.9213 27.31 49.1332 31.3541C49.3452 35.3979 45.7683 38.8842 41.1596 39.1258C36.552 39.3672 32.6311 36.2738 32.4192 32.2301Z" fill="#62FC5F"/>
<path d="M29.7024 19.6712L29.7024 19.6708C29.4633 19.0595 29.3314 18.43 29.2982 17.798C29.1437 14.8488 31.1397 11.862 34.3812 10.5924C36.2471 9.86124 38.2573 9.79753 40.041 10.413C41.9083 11.057 43.3073 12.3585 43.9808 14.078C44.6542 15.798 44.5108 17.7037 43.5775 19.4444C42.686 21.1074 41.1671 22.4254 39.3011 23.1557C35.3649 24.6971 31.0589 23.1339 29.7024 19.6712Z" fill="#62FC5F"/>
<path d="M29.8682 4.17452L29.8694 4.1756C32.0757 6.85654 31.4014 11.0743 28.3651 13.5785C25.3272 16.0805 21.0594 15.9378 18.8518 13.2611C18.0462 12.285 17.6237 11.1038 17.5593 9.87566C17.4471 7.73512 18.423 5.45085 20.3541 3.85681C23.392 1.35522 27.6598 1.4975 29.8682 4.17452Z" fill="#62FC5F"/>
</g>
<defs>
<clipPath id="clip0">
<rect width="50" height="50" fill="white" transform="matrix(-0.052336 -0.99863 -0.99863 0.052336 53.2742 50.6573)"/>
</clipPath>
</defs>
</svg>
