<svg width="30" height="30" viewBox="0 0 30 30" fill="none" xmlns="http://www.w3.org/2000/svg">
<g clip-path="url(#clip0)">
<path d="M20.0615 15.8995C18.7115 13.7935 16.4124 12.5361 13.9112 12.5361C11.4099 12.5361 9.11083 13.7935 7.76111 15.8995L4.50824 20.974C3.96854 21.8159 3.71952 22.7886 3.78795 23.7863C3.85639 24.7842 4.2361 25.7135 4.8859 26.4743C5.53615 27.2344 6.39538 27.754 7.37064 27.9769C8.34591 28.1998 9.34566 28.1046 10.2616 27.702L10.323 27.6748C12.6278 26.6819 15.2616 26.691 17.5605 27.702C18.1535 27.9627 18.7818 28.0945 19.4158 28.0945C19.7605 28.0945 20.1072 28.0554 20.4508 27.9771C21.426 27.7544 22.2853 27.2349 22.9357 26.4745C23.5858 25.7144 23.9657 24.7849 24.0344 23.7868C24.103 22.7886 23.854 21.8161 23.3143 20.9738L20.0615 15.8995Z" fill="#733999"/>
<path d="M5.38447 15.8929C6.35218 15.5212 7.08735 14.7414 7.45448 13.697C7.80398 12.7032 7.77537 11.5812 7.37368 10.5375C6.97177 9.49448 6.24072 8.64304 5.31512 8.13972C4.34283 7.61124 3.27464 7.52518 2.30853 7.89757C0.364862 8.64487 -0.52709 11.0468 0.320459 13.2529C0.997492 15.0089 2.57655 16.1174 4.173 16.1174C4.58064 16.1174 4.98942 16.0451 5.38447 15.8929Z" fill="#733999"/>
<path d="M11.6961 11.9172C14.1259 11.9172 16.1028 9.66499 16.1028 6.89667C16.1028 4.12766 14.1259 1.875 11.6961 1.875C9.26654 1.875 7.28992 4.12766 7.28992 6.89667C7.28992 9.66499 9.26654 11.9172 11.6961 11.9172Z" fill="#733999"/>
<path d="M19.3064 13.1506H19.3066C19.6804 13.2747 20.0617 13.334 20.4414 13.334C22.2134 13.334 23.9403 12.0442 24.5993 10.0621C24.9787 8.92112 24.9538 7.71468 24.529 6.66526C24.0845 5.56663 23.2608 4.7692 22.2093 4.4197C21.1576 4.0702 20.0203 4.216 19.0065 4.82986C18.0381 5.41625 17.2961 6.36771 16.9171 7.50869C16.1171 9.91561 17.189 12.4466 19.3064 13.1506Z" fill="#733999"/>
<path d="M28.5864 12.5647L28.5857 12.564C26.9101 11.3262 24.4041 11.8627 22.999 13.7606C21.5952 15.6594 21.8147 18.2121 23.4879 19.4508C24.0981 19.9029 24.819 20.119 25.557 20.119C26.843 20.119 28.1811 19.4625 29.0756 18.2554C30.4791 16.3566 30.2598 13.8039 28.5864 12.5647Z" fill="#733999"/>
</g>
<defs>
<clipPath id="clip0">
<rect width="30" height="30" fill="white"/>
</clipPath>
</defs>
</svg>
