<svg width="48" height="48" viewBox="0 0 48 48" fill="none" xmlns="http://www.w3.org/2000/svg">
<g filter="url(#filter0_d)">
<path d="M20 40C31.0457 40 40 31.0457 40 20C40 8.95431 31.0457 0 20 0C8.95431 0 0 8.95431 0 20C0 31.0457 8.95431 40 20 40Z" fill="#733999"/>
<path d="M25.1643 14.8292C25.1643 14.9173 25.1619 15.0055 25.1579 15.0928C25.153 15.1802 25.1465 15.2675 25.1385 15.3532C25.1255 15.4826 25.1077 15.6104 25.0851 15.7365C25.0608 15.874 25.0301 16.0099 24.9945 16.1433C24.9266 16.4005 24.8392 16.6496 24.7341 16.8881C24.7187 16.9229 24.7034 16.9569 24.6872 16.9908C24.6314 17.1097 24.5716 17.227 24.5069 17.341C24.4875 17.375 24.468 17.4089 24.4478 17.4429C24.2085 17.8464 23.9149 18.2144 23.5769 18.5371C23.5445 18.5678 23.5122 18.5977 23.479 18.6277C23.4224 18.6786 23.365 18.7287 23.3068 18.7773C23.2679 18.8088 23.2291 18.8403 23.1903 18.8711C23.103 18.939 23.014 19.0045 22.9226 19.066C22.9097 19.0749 22.8959 19.0838 22.883 19.0927C22.7617 19.1735 22.6371 19.2495 22.5094 19.3199C22.3937 19.3838 22.2757 19.4428 22.1552 19.4978C22.1479 19.501 22.1406 19.5043 22.1333 19.5075C21.8948 19.6143 21.6457 19.704 21.3893 19.7736C21.3351 19.7881 21.281 19.8027 21.226 19.8156C20.9688 19.8763 20.7035 19.9183 20.4326 19.9394C20.3461 19.9458 20.2579 19.9507 20.1706 19.9523C20.1269 19.9531 20.0825 19.9539 20.038 19.9539C19.9935 19.9539 19.9498 19.9531 19.9062 19.9523C19.818 19.9499 19.7307 19.9458 19.6441 19.9394C19.3732 19.9183 19.108 19.8771 18.8508 19.8156C18.7958 19.8027 18.7416 19.7881 18.6874 19.7736C18.4311 19.704 18.1828 19.6151 17.9434 19.5075C17.9362 19.5043 17.9289 19.501 17.9216 19.4978C17.8141 19.4485 17.7081 19.3959 17.6046 19.3401C17.4639 19.2641 17.3272 19.1816 17.1946 19.0927C17.1808 19.0838 17.1679 19.0749 17.155 19.066C17.0636 19.0037 16.9746 18.939 16.8873 18.8711C16.8485 18.8403 16.8088 18.8088 16.7708 18.7773C16.7118 18.7287 16.6544 18.6786 16.5978 18.6277C16.5355 18.571 16.474 18.5128 16.4142 18.453C16.1125 18.1513 15.8481 17.8117 15.6289 17.4429C15.6087 17.4089 15.5893 17.375 15.5699 17.341C15.506 17.227 15.4454 17.1097 15.3904 16.9908C15.3742 16.9569 15.3588 16.9229 15.3435 16.8881C15.2383 16.6488 15.151 16.3997 15.0831 16.1433C15.0475 16.0099 15.0176 15.874 14.9925 15.7365C14.9698 15.6104 14.9521 15.4826 14.9391 15.3532C14.9302 15.2667 14.9238 15.1802 14.9197 15.0928C14.9149 15.0055 14.9132 14.9173 14.9132 14.8292C14.9132 14.741 14.9302 14.6529 14.9351 14.5655C14.9375 14.5122 14.961 14.4588 14.961 14.4054V14.4038C14.961 14.3706 14.9512 14.3375 14.9545 14.3051C14.9577 14.2728 14.9545 14.2404 14.9577 14.2081C14.969 14.1119 14.9796 14.0164 14.9965 13.9218C15.0208 13.7843 15.0491 13.6485 15.0847 13.515C15.1526 13.2579 15.2391 13.0088 15.3443 12.7702C15.3516 12.7532 15.3588 12.7355 15.3669 12.7185C15.3742 12.7015 15.3823 12.6845 15.3904 12.6675C15.4462 12.5486 15.506 12.4314 15.5699 12.3174C15.5893 12.2834 15.6087 12.2494 15.6289 12.2155C15.8691 11.8119 16.1619 11.444 16.4999 11.1213C16.5323 11.0906 16.5646 11.0606 16.597 11.0307C16.6536 10.9798 16.711 10.9296 16.77 10.8811C16.8088 10.8496 16.8477 10.818 16.8865 10.7873C16.9738 10.7194 17.0628 10.6539 17.1542 10.5924C17.1671 10.5835 17.18 10.5746 17.1938 10.5657C17.4234 10.4121 17.6669 10.2762 17.9216 10.1605C17.9289 10.1573 17.9362 10.1541 17.9434 10.1508C18.182 10.0441 18.4311 9.95433 18.6874 9.88478C18.7416 9.87022 18.7958 9.85566 18.8508 9.84273C19.108 9.78207 19.3732 9.74002 19.6441 9.71899C19.7307 9.71252 19.818 9.70767 19.9062 9.70605C19.9498 9.70525 19.9943 9.70444 20.038 9.70444C20.0825 9.70444 20.1261 9.70525 20.1706 9.70605C20.2579 9.70848 20.3461 9.71252 20.4326 9.71899C20.7035 9.74002 20.968 9.78126 21.226 9.84273C21.281 9.85566 21.3351 9.87022 21.3893 9.88478C21.6457 9.95433 21.894 10.0433 22.1333 10.1508C22.1406 10.1541 22.1479 10.1573 22.1552 10.1605C22.4099 10.2762 22.6525 10.4121 22.883 10.5657C22.8959 10.5746 22.9097 10.5835 22.9226 10.5924C23.014 10.6547 23.103 10.7194 23.1903 10.7873C23.2299 10.818 23.2687 10.8496 23.3068 10.8811C23.365 10.9296 23.4232 10.9798 23.479 11.0307C23.5114 11.0598 23.5437 11.0897 23.5752 11.1205C23.9133 11.4431 24.2068 11.8111 24.447 12.2155C24.4672 12.2494 24.4866 12.2834 24.5061 12.3174C24.5708 12.4314 24.6306 12.5486 24.6864 12.6675C24.7026 12.7015 24.7179 12.7355 24.7333 12.7702C24.8384 13.0096 24.9258 13.2587 24.9937 13.515C25.0293 13.6485 25.0592 13.7843 25.0843 13.9218C25.1069 14.048 25.1247 14.1757 25.1377 14.3051C25.1417 14.3456 25.1449 14.386 25.1482 14.4264C25.1514 14.4725 25.1546 14.5194 25.1571 14.5655C25.1619 14.6529 25.1643 14.7402 25.1643 14.8292Z" fill="white"/>
<path d="M28.51 24.8595V30.167C28.51 30.2762 28.5149 30.2964 28.4113 30.2964H11.6664C11.562 30.2964 11.4699 30.2754 11.4699 30.167V24.8595C11.4699 24.7738 11.465 24.6888 11.469 24.6047C11.5297 23.3407 12.0343 22.194 12.8269 21.3344C12.8503 21.3093 12.8721 21.2834 12.8964 21.2591C13.2919 20.8475 13.7528 20.5046 14.2623 20.2523C14.293 20.2369 14.3238 20.2224 14.3545 20.207C14.4952 20.1415 14.6383 20.0817 14.7855 20.0299C14.8179 20.0186 14.851 20.0073 14.8842 19.996C15.016 19.9523 15.1503 19.9151 15.2861 19.8827C15.4527 20.0429 15.6266 20.1933 15.8061 20.334C16.2671 20.6955 16.7693 20.9955 17.3022 21.2317C17.4025 21.2761 17.5036 21.3182 17.6047 21.357C17.9977 21.509 18.3996 21.6231 18.8096 21.6991C19.2116 21.7727 19.6208 21.8107 20.0348 21.8107C20.5087 21.8107 20.9745 21.767 21.4298 21.67C21.4864 21.6578 21.543 21.636 21.5997 21.636C21.5997 21.636 21.5997 21.636 21.6005 21.636C21.6854 21.636 21.7695 21.636 21.8536 21.636C21.8536 21.636 21.8536 21.636 21.8544 21.636C22.076 21.636 22.2943 21.4621 22.5103 21.3764C22.596 21.3424 22.6809 21.2672 22.7658 21.2292C23.1823 21.0448 23.5753 20.7974 23.9449 20.5184C23.9861 20.5184 24.0266 20.4812 24.067 20.4513C24.3096 20.2709 24.5425 20.0849 24.7641 19.8722C26.8659 20.3615 28.4235 22.2862 28.5327 24.5991C28.5367 24.684 28.51 24.7746 28.51 24.8595Z" fill="white"/>
</g>
<defs>
<filter id="filter0_d" x="0" y="0" width="48" height="48" filterUnits="userSpaceOnUse" color-interpolation-filters="sRGB">
<feFlood flood-opacity="0" result="BackgroundImageFix"/>
<feColorMatrix in="SourceAlpha" type="matrix" values="0 0 0 0 0 0 0 0 0 0 0 0 0 0 0 0 0 0 127 0"/>
<feOffset dx="4" dy="4"/>
<feGaussianBlur stdDeviation="2"/>
<feColorMatrix type="matrix" values="0 0 0 0 0 0 0 0 0 0 0 0 0 0 0 0 0 0 0.25 0"/>
<feBlend mode="normal" in2="BackgroundImageFix" result="effect1_dropShadow"/>
<feBlend mode="normal" in="SourceGraphic" in2="effect1_dropShadow" result="shape"/>
</filter>
</defs>
</svg>
