<svg width="30" height="30" viewBox="0 0 30 30" fill="none" xmlns="http://www.w3.org/2000/svg">
<path d="M15.0586 0C6.81973 0 0 6.70254 0 14.9414C0 23.1803 6.81973 30 15.0586 30C23.2975 30 30 23.1803 30 14.9414C30 6.70254 23.2975 0 15.0586 0ZM15.0586 25.6055C14.0895 25.6055 13.3008 24.8168 13.3008 23.8477C13.3008 22.8785 14.0895 22.0898 15.0586 22.0898C16.0271 22.0898 16.8164 22.8785 16.8164 23.8477C16.8164 24.8168 16.0271 25.6055 15.0586 25.6055ZM18.174 14.8014C17.2975 15.4453 16.8164 17.1463 16.8164 17.9953V18.457C16.8164 19.4262 16.0271 20.2148 15.0586 20.2148C14.0895 20.2148 13.3008 19.4262 13.3008 18.457V17.9953C13.3008 16.0236 14.3191 13.268 16.0963 11.9666C17.4615 10.9641 16.7525 8.78906 15.0586 8.78906C14.0895 8.78906 13.3008 9.57773 13.3008 10.5469C13.3008 11.516 12.5115 12.3047 11.543 12.3047C10.5738 12.3047 9.78516 11.516 9.78516 10.5469C9.78516 7.63887 12.1506 5.27344 15.0586 5.27344C17.9666 5.27344 20.332 7.63887 20.332 10.5469C20.332 12.2209 19.5252 13.8111 18.174 14.8014Z" fill="#733999"/>
</svg>
