<svg width="30" height="30" viewBox="0 0 30 30" fill="none" xmlns="http://www.w3.org/2000/svg">
<path d="M15 0C6.72893 0 0 6.72893 0 15C0 23.2711 6.72893 30 15 30C23.271 30 29.9999 23.2711 29.9999 15C30 6.72893 23.2711 0 15 0ZM4.72822 9.89119C4.55485 9.22688 4.9528 8.54782 5.61711 8.37445C6.16424 8.23174 6.72089 8.47721 6.99727 8.93931C7.61998 7.94318 8.42343 7.0581 9.36586 6.34937C11.0311 5.09708 13.0154 4.4351 15.104 4.4351C17.1927 4.4351 19.177 5.097 20.8422 6.34937C22.4517 7.55973 23.6602 9.28216 24.2449 11.1993C24.4452 11.856 24.0752 12.5507 23.4185 12.751C23.2977 12.7878 23.1755 12.8054 23.0554 12.8054C22.5229 12.8054 22.0303 12.4605 21.8669 11.9246C20.9541 8.93202 18.2364 6.92128 15.1041 6.92128C12.7938 6.92128 10.7101 8.01603 9.4087 9.79091C9.92558 9.71624 10.4541 9.97406 10.6993 10.4671C11.005 11.0817 10.7546 11.8279 10.14 12.1336L7.60921 13.3926C7.38106 13.506 7.13567 13.563 6.89169 13.563C6.67158 13.563 6.45255 13.5167 6.2481 13.4237C5.81708 13.2276 5.4996 12.8462 5.37719 12.3772L4.72822 9.89119ZM24.3719 21.6255C24.2666 21.653 24.161 21.6662 24.0571 21.6662C23.6206 21.6662 23.215 21.4339 22.9918 21.0607C22.3691 22.0568 21.5656 22.942 20.6232 23.6507C18.958 24.903 16.9737 25.565 14.885 25.565C12.7963 25.565 10.8121 24.9031 9.14683 23.6507C7.53735 22.4404 6.32891 20.7179 5.74416 18.8007C5.54385 18.1441 5.91388 17.4493 6.57056 17.249C7.22741 17.0487 7.92197 17.4188 8.12227 18.0754C9.03495 21.0681 11.7528 23.0788 14.885 23.0788C17.1953 23.0788 19.2791 21.9841 20.5804 20.2092C20.0636 20.2838 19.5351 20.026 19.2899 19.533C18.9841 18.9183 19.2345 18.1722 19.8492 17.8664L22.3799 16.6075C22.8139 16.3916 23.3099 16.3804 23.7412 16.5764C24.1722 16.7726 24.4896 17.1541 24.612 17.623L25.2608 20.109C25.4341 20.7731 25.0362 21.4522 24.3719 21.6255Z" fill="#733999"/>
</svg>
