<svg width="30" height="28" viewBox="0 0 30 28" fill="none" xmlns="http://www.w3.org/2000/svg">
<path d="M16.4222 0.381651C9.18688 0.360557 3.26089 5.98228 2.7939 13.0946H0.899445C0.208097 13.0946 -0.224031 13.843 0.121672 14.4417L2.23163 18.0963L4.34159 21.7508C4.68729 22.3496 5.55149 22.3496 5.8972 21.7508L8.00715 18.0963L10.1171 14.4417C10.4628 13.843 10.0307 13.0946 9.33934 13.0946H7.09339C7.55505 8.32175 11.6265 4.58892 16.5363 4.66878C21.505 4.74958 25.5685 8.76097 25.7102 13.7284C25.8607 18.9978 21.6178 23.3324 16.3817 23.3324C15.0389 23.3324 13.7616 23.0472 12.6068 22.5342C11.605 22.0893 10.4291 22.4731 9.88104 23.4224C9.24618 24.522 9.69747 25.9354 10.8578 26.4511C12.5461 27.2014 14.4151 27.6183 16.3817 27.6183C23.8933 27.6183 29.9845 21.5367 30 14.0288C30.0155 6.48724 23.9637 0.403682 16.4222 0.381651Z" fill="#733999"/>
</svg>
