<svg width="30" height="30" viewBox="0 0 30 30" fill="none" xmlns="http://www.w3.org/2000/svg">
<g clip-path="url(#clip0)">
<path d="M29.3198 5.53098H17.3986C17.1122 4.2064 15.895 3.16821 14.4988 3.16821C13.0668 3.16821 11.8854 4.1706 11.599 5.53098H0.644391C0.286396 5.53098 0 5.81738 0 6.17537C0 6.53337 0.286396 6.81976 0.644391 6.81976H11.5632C11.8496 8.14435 13.0668 9.18253 14.463 9.18253C15.895 9.18253 17.0764 8.18015 17.3628 6.81976H29.3198C29.6778 6.81976 29.9642 6.53337 29.9642 6.17537C29.9642 5.81738 29.6778 5.53098 29.3198 5.53098ZM14.4988 7.92955C13.568 7.92955 12.7804 7.17776 12.7804 6.21117C12.7804 5.24459 13.5322 4.4928 14.4988 4.4928C15.4296 4.4928 16.2172 5.24459 16.2172 6.21117C16.2172 7.14196 15.4654 7.92955 14.4988 7.92955Z" fill="#D5208F"/>
<path d="M29.3556 14.3735H11.2768C10.9905 13.0489 9.77327 12.0107 8.37709 12.0107C6.94511 12.0107 5.76372 13.0131 5.47733 14.3735H0.644391C0.286396 14.3735 0 14.6599 0 15.0179C0 15.3759 0.286396 15.6623 0.644391 15.6623H5.47733C5.76372 16.9869 6.98091 18.0251 8.37709 18.0251C9.80907 18.0251 10.9905 17.0227 11.2768 15.6623H29.3556C29.7136 15.6623 30 15.3759 30 15.0179C30 14.6599 29.7136 14.3735 29.3556 14.3735ZM8.37709 16.7363C7.4463 16.7363 6.65871 15.9845 6.65871 15.0179C6.65871 14.0871 7.4463 13.2995 8.37709 13.2995C9.30788 13.2995 10.0955 14.0513 10.0955 15.0179C10.0955 15.9487 9.34367 16.7363 8.37709 16.7363Z" fill="#F9FC5F"/>
<path d="M29.3198 23.1802H23.6993C23.4129 21.8556 22.1957 20.8174 20.7995 20.8174C19.3675 20.8174 18.1862 21.8198 17.8998 23.1802H0.644391C0.286396 23.1802 0 23.4666 0 23.8246C0 24.1826 0.286396 24.469 0.644391 24.469H17.864C18.1504 25.7936 19.3675 26.8318 20.7637 26.8318C22.1957 26.8318 23.3771 25.8294 23.6635 24.469H29.3198C29.6778 24.469 29.9642 24.1826 29.9642 23.8246C29.9642 23.4666 29.6778 23.1802 29.3198 23.1802ZM20.7637 25.5788C19.8329 25.5788 19.0453 24.827 19.0453 23.8604C19.0453 22.8938 19.8329 22.142 20.7637 22.142C21.6945 22.142 22.4821 22.8938 22.4821 23.8604C22.4821 24.827 21.7303 25.5788 20.7637 25.5788Z" fill="#45F9A3"/>
</g>
<defs>
<clipPath id="clip0">
<rect width="30" height="30" fill="white"/>
</clipPath>
</defs>
</svg>
