<svg width="48" height="48" viewBox="0 0 48 48" fill="none" xmlns="http://www.w3.org/2000/svg">
<g filter="url(#filter0_d)">
<path d="M20 40C31.0457 40 40 31.0457 40 20C40 8.95431 31.0457 0 20 0C8.95431 0 0 8.95431 0 20C0 31.0457 8.95431 40 20 40Z" fill="#733999"/>
<path d="M24.5206 13.5361L23.318 11.4415C23.1644 11.1738 22.7649 11.135 22.4972 11.2887L21.293 11.9801L21.2874 11.9833C20.786 11.4642 20.1325 10.9199 19.4338 10.5358L19.7921 9.18767C19.873 8.89007 19.6967 8.58276 19.3991 8.50189L17.0684 7.8711C16.7708 7.79023 16.4643 7.96572 16.3842 8.26413L16.0235 9.60334L16.026 9.60738C15.2504 9.5807 14.5614 9.61951 13.709 9.89205L13.0176 8.68789C12.8639 8.42021 12.4919 8.31508 12.2243 8.46873L10.1297 9.67127C9.86203 9.82492 9.88872 10.1282 10.0424 10.3959L10.7338 11.6L10.737 11.6057C10.0658 12.1944 9.62832 12.7872 9.24418 13.4859L7.85079 13.1543C7.55319 13.0735 7.24588 13.2506 7.16582 13.5482L6.53584 15.8805C6.45497 16.1789 6.63208 16.487 6.93049 16.5679L8.27293 16.9334L8.28264 16.9415C8.25595 17.717 8.30771 18.4279 8.57943 19.2803L7.37527 19.9717C7.10759 20.1254 7.06878 20.4011 7.22243 20.6688L8.42497 22.7633C8.57862 23.031 8.81557 23.1006 9.08325 22.9469L10.2874 22.2555L10.2931 22.2522C10.8818 22.9235 11.4625 23.3383 12.1612 23.7225L11.8175 25.0932C11.7366 25.3908 11.9153 25.6973 12.2129 25.7774L14.5477 26.4057C14.8453 26.4866 15.1598 26.3063 15.2407 26.0079L15.6176 24.6589L15.6483 24.6363C16.4238 24.663 17.18 24.5853 18.0332 24.3128L18.7246 25.517C18.8783 25.7847 19.0885 25.9197 19.3562 25.766L21.4507 24.5635C21.7184 24.4099 21.8535 24.0767 21.6998 23.809L21.0084 22.6048L21.0051 22.5992C21.6764 22.0104 22.0459 21.4557 22.4301 20.7578L23.7555 21.1281C24.0539 21.209 24.3596 21.0311 24.4405 20.7335L25.0697 18.4004C25.1505 18.102 24.971 17.7906 24.6734 17.7106L23.3277 17.3386L23.3107 17.3184C23.3374 16.5428 23.2727 15.8085 23.0002 14.9561L24.2044 14.2647C24.4737 14.1094 24.6742 13.8037 24.5206 13.5361ZM13.0702 14.9723C13.3378 14.6327 13.6726 14.3375 14.0705 14.1086C14.5646 13.8248 15.1 13.676 15.6329 13.6501C15.6887 13.6477 15.7453 13.646 15.8011 13.646C15.8294 13.646 15.8569 13.646 15.8852 13.6468C15.941 13.6485 15.9968 13.6509 16.0526 13.6549C16.1084 13.659 16.1634 13.6646 16.2192 13.6711C16.2467 13.6743 16.2742 13.6784 16.3017 13.6824C16.4117 13.6986 16.5217 13.7196 16.6293 13.7463C16.6559 13.7528 16.6834 13.7601 16.7101 13.7673C16.7635 13.7819 16.8169 13.7973 16.8702 13.8151C16.8969 13.824 16.9228 13.832 16.9495 13.8417C17.0021 13.8603 17.0538 13.8798 17.1056 13.9008C17.1315 13.9113 17.1573 13.9218 17.1824 13.9331C17.2188 13.9485 17.2544 13.9655 17.29 13.9817C17.3304 14.0003 17.37 14.0205 17.4096 14.0407C17.459 14.0666 17.5083 14.0933 17.5568 14.1216C17.6215 14.1596 17.6846 14.1992 17.7469 14.2412C17.7776 14.2623 17.8091 14.2833 17.8391 14.3051C17.8852 14.3383 17.9296 14.3723 17.9741 14.4078C18.0404 14.4612 18.1051 14.5162 18.1674 14.5744C18.2095 14.6132 18.2499 14.6529 18.2903 14.6941C18.4909 14.8995 18.6688 15.1332 18.8184 15.3928C19.0877 15.8611 19.2349 16.3657 19.2721 16.8711C19.2786 16.9552 19.281 17.0394 19.281 17.1235C19.281 17.1793 19.2794 17.2351 19.2769 17.2909C19.2745 17.3467 19.2705 17.4025 19.2648 17.4583C19.2511 17.5974 19.2292 17.7348 19.1993 17.8707C19.1872 17.9249 19.1742 17.9791 19.1597 18.0324C19.1378 18.1133 19.1136 18.1926 19.0861 18.2718C19.0675 18.3244 19.0481 18.3761 19.0271 18.4279C19.0165 18.4538 19.006 18.4796 18.9947 18.5047C18.9729 18.5557 18.9494 18.6066 18.9243 18.6568C18.8871 18.732 18.8483 18.8056 18.8055 18.8783C18.7772 18.9269 18.7481 18.9746 18.7173 19.0215C18.427 19.4687 18.0283 19.8561 17.5342 20.1399C17.1177 20.3793 16.6729 20.5224 16.2241 20.5766C16.1683 20.5831 16.1117 20.5887 16.0559 20.5928C15.8877 20.6049 15.7195 20.6049 15.5521 20.5928C15.4963 20.5887 15.4413 20.5831 15.3855 20.5766C15.358 20.5734 15.3305 20.5693 15.303 20.5653C15.2205 20.5532 15.138 20.5386 15.0563 20.52C14.1328 20.317 13.295 19.7396 12.7863 18.8549C12.5445 18.4336 12.4005 17.9831 12.3472 17.5294C12.3245 17.3353 12.3181 17.1396 12.3286 16.9464C12.3318 16.8817 12.3375 16.8178 12.3439 16.7531C12.3609 16.5929 12.3892 16.4344 12.4289 16.2784C12.4677 16.1223 12.5178 15.9694 12.5777 15.8198C12.5882 15.794 12.5987 15.7681 12.61 15.743C12.6318 15.6921 12.6553 15.6411 12.6804 15.591C12.7046 15.5408 12.7305 15.4915 12.758 15.4422C12.8122 15.3443 12.8704 15.2489 12.9343 15.1559C12.9553 15.126 12.9763 15.096 12.9982 15.0661C13.0216 15.0346 13.0459 15.003 13.0702 14.9723Z" fill="white"/>
<path d="M31.8151 22.1139L30.619 21.1839C30.4662 21.0651 30.2252 21.137 30.1063 21.2899L29.5717 21.9773L29.5693 21.9805C29.1544 21.7986 28.6458 21.6376 28.1492 21.581L28.0368 20.7133C28.0126 20.5208 27.8379 20.3849 27.6454 20.4092L26.1428 20.5968C25.9504 20.6211 25.8153 20.7958 25.8388 20.9874L25.9479 21.8503L25.9504 21.8519C25.4943 22.0209 25.1029 22.2069 24.6726 22.5676L23.9852 22.0331C23.8324 21.9142 23.5914 21.9417 23.4725 22.0945L22.5425 23.2906C22.4236 23.4435 22.511 23.6133 22.6638 23.7322L23.3512 24.2667L23.3544 24.2691C23.1046 24.7705 22.9921 25.2186 22.9347 25.7151L22.0468 25.8534C21.8543 25.8776 21.7184 26.0531 21.7427 26.2448L21.9311 27.7482C21.9554 27.9406 22.1317 28.0773 22.3234 28.053L23.1895 27.9463L23.1976 27.9487C23.3666 28.4048 23.5655 28.8059 23.9262 29.2362L23.3916 29.9236C23.2728 30.0764 23.3156 30.2454 23.4685 30.3643L24.6645 31.2943C24.8174 31.4132 24.9718 31.397 25.0907 31.2442L25.6253 30.5568L25.6277 30.5536C26.1291 30.8034 26.565 30.9061 27.0615 30.9628L27.1877 31.8402C27.2119 32.0327 27.3882 32.1677 27.5799 32.1435L29.0849 31.9534C29.2774 31.9292 29.4165 31.7496 29.3922 31.558L29.2903 30.6854L29.3024 30.6643C29.7585 30.4953 30.1799 30.2705 30.6101 29.9098L31.2975 30.4444C31.4503 30.5633 31.6048 30.5916 31.7229 30.4387L32.6529 29.2426C32.7718 29.0898 32.771 28.8642 32.6181 28.7453L31.9307 28.2107L31.9275 28.2083C32.1774 27.7069 32.2599 27.2969 32.3173 26.8004L33.1745 26.7001C33.367 26.6758 33.502 26.5003 33.4786 26.3079L33.2893 24.8037C33.2651 24.6112 33.0872 24.4729 32.8955 24.4972L32.0261 24.6015L32.0116 24.5934C31.8426 24.1373 31.6307 23.7257 31.27 23.2955L31.8046 22.6081C31.9234 22.4576 31.9679 22.2328 31.8151 22.1139ZM25.5088 25.6698C25.5832 25.4094 25.7078 25.1579 25.8841 24.9307C26.1032 24.6484 26.379 24.4349 26.6822 24.2934C26.7138 24.2788 26.7461 24.2643 26.7793 24.2513C26.7955 24.2449 26.8116 24.2384 26.8286 24.2319C26.8618 24.2198 26.8941 24.2077 26.9281 24.1972C26.9613 24.1866 26.9952 24.1761 27.0284 24.1672C27.0454 24.1624 27.0623 24.1583 27.0793 24.1543C27.1473 24.1373 27.216 24.1236 27.2847 24.1139C27.3017 24.1114 27.3195 24.109 27.3365 24.1066C27.3713 24.1025 27.406 24.0985 27.4408 24.0961C27.4586 24.0945 27.4756 24.0936 27.4934 24.0928C27.5282 24.0912 27.5629 24.0896 27.5977 24.0896C27.6155 24.0896 27.6325 24.0896 27.6503 24.0896C27.6745 24.0904 27.6996 24.0912 27.7239 24.092C27.7514 24.0936 27.7797 24.0953 27.8072 24.0977C27.8419 24.1009 27.8767 24.105 27.9115 24.1098C27.9576 24.1163 28.0045 24.1244 28.0506 24.1341C28.0732 24.1389 28.0967 24.1438 28.1193 24.1494C28.1541 24.1575 28.1881 24.1672 28.222 24.1769C28.273 24.1923 28.3239 24.2085 28.374 24.2279C28.4072 24.2408 28.4412 24.2538 28.4735 24.2683C28.6385 24.3395 28.7978 24.4333 28.9458 24.5489C29.2135 24.7568 29.4189 25.0148 29.5604 25.2994C29.5839 25.3471 29.6057 25.3948 29.6259 25.4434C29.6389 25.4757 29.6518 25.5089 29.6631 25.542C29.6744 25.5752 29.6858 25.6083 29.6955 25.6415C29.7205 25.7256 29.7408 25.8105 29.7553 25.8962C29.761 25.931 29.7666 25.965 29.7707 25.9998C29.7771 26.0515 29.782 26.1041 29.7844 26.1558C29.786 26.1906 29.7877 26.2254 29.7877 26.2602C29.7877 26.2779 29.7877 26.2949 29.7877 26.3127C29.7869 26.3475 29.7852 26.3823 29.7828 26.4179C29.7796 26.4704 29.7739 26.523 29.7666 26.5747C29.7618 26.6095 29.7561 26.6443 29.7497 26.6791C29.6874 27.0082 29.5483 27.3268 29.3283 27.6099C29.1431 27.8476 28.9191 28.0369 28.6717 28.1752C28.6409 28.1921 28.6094 28.2091 28.5778 28.2245C28.4832 28.2714 28.3854 28.3118 28.2851 28.3442C28.2519 28.3547 28.218 28.3652 28.1848 28.3741C28.1678 28.379 28.1509 28.383 28.1339 28.387C28.0829 28.4 28.032 28.4105 27.9802 28.4194C27.3955 28.5213 26.772 28.3854 26.2666 27.9924C26.0264 27.8056 25.8355 27.5783 25.6964 27.3268C25.6366 27.2193 25.5873 27.1077 25.5468 26.9928C25.5331 26.9548 25.521 26.916 25.5096 26.8772C25.4813 26.7802 25.4603 26.6815 25.4457 26.5812C25.4312 26.4817 25.4239 26.3807 25.4231 26.2796C25.4231 26.2618 25.4231 26.2448 25.4231 26.227C25.4239 26.1922 25.4255 26.1575 25.428 26.1219C25.4304 26.0863 25.4336 26.0523 25.4377 26.0175C25.4457 25.948 25.4571 25.8785 25.4716 25.8097C25.4765 25.7871 25.4821 25.7644 25.487 25.7426C25.4959 25.7175 25.5024 25.6933 25.5088 25.6698Z" fill="white"/>
</g>
<defs>
<filter id="filter0_d" x="0" y="0" width="48" height="48" filterUnits="userSpaceOnUse" color-interpolation-filters="sRGB">
<feFlood flood-opacity="0" result="BackgroundImageFix"/>
<feColorMatrix in="SourceAlpha" type="matrix" values="0 0 0 0 0 0 0 0 0 0 0 0 0 0 0 0 0 0 127 0"/>
<feOffset dx="4" dy="4"/>
<feGaussianBlur stdDeviation="2"/>
<feColorMatrix type="matrix" values="0 0 0 0 0 0 0 0 0 0 0 0 0 0 0 0 0 0 0.25 0"/>
<feBlend mode="normal" in2="BackgroundImageFix" result="effect1_dropShadow"/>
<feBlend mode="normal" in="SourceGraphic" in2="effect1_dropShadow" result="shape"/>
</filter>
</defs>
</svg>
