<svg width="30" height="30" viewBox="0 0 30 30" fill="none" xmlns="http://www.w3.org/2000/svg">
<g clip-path="url(#clip0)">
<path d="M14.9994 18.4269C16.5567 18.4269 17.8191 17.1645 17.8191 15.6072C17.8191 14.0499 16.5567 12.7875 14.9994 12.7875C13.4421 12.7875 12.1797 14.0499 12.1797 15.6072C12.1797 17.1645 13.4421 18.4269 14.9994 18.4269Z" fill="#733999"/>
<path d="M15.0005 0C6.71658 0 0.000976562 6.7161 0.000976562 14.9997C0.000976562 23.2833 6.71658 30 15.0005 30C23.2844 30 30.0008 23.2837 30.0008 14.9997C30.0008 6.7157 23.2844 0 15.0005 0ZM22.8829 17.1799L20.7523 17.3171C20.633 17.7191 20.474 18.1037 20.2777 18.4653L21.6865 20.0692L19.462 22.2935L17.8589 20.8844C17.4971 21.0805 17.1125 21.2395 16.7107 21.3585L16.573 23.4896L13.4272 23.4893L13.2897 21.3584C12.8882 21.2394 12.5036 21.0804 12.1418 20.8843L10.5384 22.2934L8.31408 20.0684L9.72288 18.4653C9.52658 18.1035 9.36758 17.7189 9.24828 17.3171L7.11768 17.1796V14.0338L9.24828 13.8963C9.36758 13.4948 9.52688 13.1099 9.72288 12.7484L8.31408 11.1453L10.5386 8.9205L12.1417 10.3293C12.5035 10.133 12.8881 9.9742 13.2901 9.8549L13.4276 7.724H16.5728L16.7105 9.8549C17.1122 9.9742 17.4969 10.1329 17.8587 10.3293L19.4623 8.9205L21.6866 11.1453L20.2778 12.7484C20.4739 13.1102 20.6331 13.4948 20.7524 13.8963L22.883 14.0338L22.8829 17.1799Z" fill="#733999"/>
</g>
<defs>
<clipPath id="clip0">
<rect width="30" height="30" fill="white"/>
</clipPath>
</defs>
</svg>
