<svg width="49" height="48" viewBox="0 0 49 48" fill="none" xmlns="http://www.w3.org/2000/svg">
<g filter="url(#filter0_d)">
<path d="M20.688 40C31.7164 40 40.6568 31.0457 40.6568 20C40.6568 8.95431 31.7164 0 20.688 0C9.65951 0 0.719177 8.95431 0.719177 20C0.719177 31.0457 9.65951 40 20.688 40Z" fill="#733999"/>
<path d="M29.0966 23.5243H12.4633V13.4964H11.0907V24.6565H30.55V13.4964H29.0966V23.5243Z" fill="white"/>
<path d="M11.111 31.1034L11.9951 31.7083L16.5402 24.8991H15.2637L11.111 31.1034Z" fill="white"/>
<path d="M30.6026 31.1034L29.7192 31.7083L25.1733 24.8991H26.4499L30.6026 31.1034Z" fill="white"/>
<path d="M32.0132 11.5475H9.67297V13.1357H32.0132V11.5475Z" fill="white"/>
<path d="M9.40798 11.5475H8.20732V13.1357H9.40798V11.5475Z" fill="white"/>
<path d="M33.5028 11.5475H32.3022V13.1357H33.5028V11.5475Z" fill="white"/>
<path d="M20.8431 9.69069C22.3562 9.69069 23.6296 10.4234 23.9978 11.7173H24.7745C24.3902 10.0999 22.7761 9.05991 20.8431 9.05991C18.9101 9.05991 17.296 10.0999 16.9117 11.7173H17.6884C18.0566 10.4234 19.3291 9.69069 20.8431 9.69069Z" fill="white"/>
<path d="M15.4587 16.3447H15.1102V22.4334H15.4587V16.3447Z" fill="white"/>
<path d="M16.2573 17.1703H15.9087V22.4334H16.2573V17.1703Z" fill="white"/>
<path d="M17.0559 15.1146H16.7073V22.4334H17.0559V15.1146Z" fill="white"/>
<path d="M17.8544 18.0478H17.5059V22.4334H17.8544V18.0478Z" fill="white"/>
<path d="M18.653 14.7968H18.3044V22.4334H18.653V14.7968Z" fill="white"/>
<path d="M19.4515 16.1126H19.103V22.4334H19.4515V16.1126Z" fill="white"/>
<path d="M20.2501 19.1743H19.9015V22.4334H20.2501V19.1743Z" fill="white"/>
<path d="M21.0486 15.3815H20.7001V22.4334H21.0486V15.3815Z" fill="white"/>
<path d="M21.8472 17.2391H21.4986V22.4334H21.8472V17.2391Z" fill="white"/>
<path d="M22.6457 20.5629H22.2972V22.4334H22.6457V20.5629Z" fill="white"/>
<path d="M23.4443 16.4862H23.0957V22.4326H23.4443V16.4862Z" fill="white"/>
<path d="M24.2429 18.774H23.8943V22.4334H24.2429V18.774Z" fill="white"/>
<path d="M25.0414 15.3257H24.6929V22.4334H25.0414V15.3257Z" fill="white"/>
<path d="M25.84 16.6027H25.4914V22.4334H25.84V16.6027Z" fill="white"/>
<path d="M26.6385 19.518H26.29V22.4334H26.6385V19.518Z" fill="white"/>
</g>
<defs>
<filter id="filter0_d" x="0.719177" y="0" width="47.9376" height="48" filterUnits="userSpaceOnUse" color-interpolation-filters="sRGB">
<feFlood flood-opacity="0" result="BackgroundImageFix"/>
<feColorMatrix in="SourceAlpha" type="matrix" values="0 0 0 0 0 0 0 0 0 0 0 0 0 0 0 0 0 0 127 0"/>
<feOffset dx="4" dy="4"/>
<feGaussianBlur stdDeviation="2"/>
<feColorMatrix type="matrix" values="0 0 0 0 0 0 0 0 0 0 0 0 0 0 0 0 0 0 0.25 0"/>
<feBlend mode="normal" in2="BackgroundImageFix" result="effect1_dropShadow"/>
<feBlend mode="normal" in="SourceGraphic" in2="effect1_dropShadow" result="shape"/>
</filter>
</defs>
</svg>
