<svg width="48" height="48" viewBox="0 0 48 48" fill="none" xmlns="http://www.w3.org/2000/svg">
<g filter="url(#filter0_d)">
<path d="M20 40C31.0457 40 40 31.0457 40 20C40 8.95431 31.0457 0 20 0C8.95431 0 0 8.95431 0 20C0 31.0457 8.95431 40 20 40Z" fill="#733999"/>
<path d="M14.61 31.1375C16.5655 34.2089 21.3772 34.399 23.4936 32.5818C23.458 32.5616 23.4208 32.5486 23.3949 32.5244C23.3383 32.4726 23.2712 32.4006 23.2138 32.3173C23.0205 32.0416 23.1248 31.8637 23.2389 31.7658C23.3084 31.7068 23.3933 31.6704 23.4831 31.6534C24.0201 31.5523 25.1215 31.3898 25.3148 31.6866C25.5501 32.0472 25.1838 32.9344 24.9921 33.4552C24.9007 33.7027 24.7325 33.8765 24.4721 33.786C24.3282 33.7358 24.2336 33.5433 24.0872 33.3832C23.6473 33.5716 23.4669 33.756 22.9566 33.9809C20.9341 34.8995 19.0854 34.6286 17.1558 33.7018C16.3714 33.325 15.6395 32.7694 15.1316 32.0092C14.9432 31.727 14.7823 31.4278 14.61 31.1375Z" fill="white"/>
<path d="M13.0928 10.3627C9.45203 10.3344 6.67737 14.2703 7.0518 17.0345C7.08819 17.0151 7.11973 16.9916 7.1537 16.9827C7.2281 16.9633 7.32514 16.9463 7.42623 16.9431C7.76265 16.931 7.85565 17.1145 7.87587 17.2642C7.888 17.3547 7.87182 17.4461 7.83705 17.5302C7.63002 18.0357 7.16825 19.049 6.81404 19.0498C6.383 19.0514 5.83794 18.2613 5.50475 17.8181C5.34625 17.607 5.29207 17.3709 5.50961 17.2019C5.6301 17.1081 5.84279 17.1331 6.0571 17.0976C6.13797 16.6261 6.08136 16.3746 6.17032 15.8239C6.49865 13.6266 7.7303 12.2227 9.55797 11.1067C10.3004 10.653 11.1649 10.3409 12.0795 10.3271C12.4167 10.3214 12.7548 10.3498 13.0928 10.3627Z" fill="white"/>
<path d="M32.2899 19.1266C33.5846 15.7236 30.8609 11.7521 28.1397 11.1399C28.1445 11.1811 28.1558 11.2183 28.1526 11.2539C28.1445 11.3307 28.1267 11.427 28.0952 11.5232C27.9892 11.8426 27.7846 11.8661 27.6375 11.8329C27.5485 11.8127 27.4684 11.7658 27.4013 11.7043C26.9994 11.334 26.2109 10.5479 26.333 10.2163C26.4818 9.81199 27.4118 9.57585 27.944 9.41815C28.1971 9.34294 28.4364 9.37448 28.5197 9.63731C28.5658 9.78287 28.468 9.97373 28.4267 10.1872C28.8408 10.4274 29.0964 10.4622 29.5816 10.7371C31.5265 11.8095 32.4136 13.4544 32.8237 15.5554C32.9902 16.4094 32.9814 17.3281 32.6765 18.1901C32.5641 18.5071 32.4201 18.8145 32.2899 19.1266Z" fill="white"/>
<path d="M22.6759 8.74615C22.6759 8.7971 22.6743 8.84804 22.6719 8.89899C22.6695 8.94994 22.6654 9.00008 22.6606 9.04941C22.6533 9.12381 22.6428 9.19821 22.6298 9.271C22.6153 9.35025 22.5983 9.4295 22.5773 9.50633C22.5377 9.65513 22.4875 9.79908 22.4269 9.93817C22.418 9.95839 22.4091 9.9778 22.4002 9.99802C22.3678 10.0668 22.3331 10.1347 22.2959 10.201C22.2845 10.2204 22.2732 10.2406 22.2619 10.26C22.1228 10.4938 21.953 10.7064 21.7581 10.8933C21.7395 10.911 21.7209 10.9288 21.7015 10.9458C21.6691 10.9757 21.6351 11.004 21.602 11.0323C21.5793 11.0509 21.5575 11.0687 21.5341 11.0865C21.4839 11.1262 21.4322 11.1634 21.3796 11.1997C21.3723 11.2046 21.3642 11.2103 21.357 11.2151C21.2866 11.262 21.2146 11.3057 21.141 11.3469C21.0739 11.3841 21.006 11.4181 20.9356 11.4496C20.9316 11.4513 20.9275 11.4537 20.9227 11.4553C20.7844 11.5176 20.6404 11.5685 20.4916 11.609C20.4601 11.6178 20.4286 11.6259 20.397 11.6332C20.2482 11.6688 20.0946 11.6931 19.9377 11.7052C19.8875 11.7092 19.8366 11.7117 19.7856 11.7125C19.7606 11.7133 19.7347 11.7133 19.7088 11.7133C19.6829 11.7133 19.6579 11.7133 19.632 11.7125C19.581 11.7117 19.5309 11.7084 19.48 11.7052C19.3231 11.6931 19.1694 11.6688 19.0206 11.6332C18.9891 11.6259 18.9575 11.6178 18.926 11.609C18.7772 11.5685 18.6332 11.5168 18.495 11.4553C18.4909 11.4537 18.4869 11.4513 18.482 11.4496C18.4197 11.4213 18.3583 11.3906 18.2984 11.3583C18.2168 11.3146 18.1375 11.2661 18.0607 11.2151C18.0526 11.2103 18.0453 11.2046 18.038 11.1997C17.9855 11.1634 17.9337 11.1262 17.8828 11.0865C17.8601 11.0687 17.8375 11.0509 17.8156 11.0323C17.7817 11.004 17.7485 10.9757 17.7154 10.9458C17.679 10.9127 17.6434 10.8795 17.6094 10.8447C17.4347 10.67 17.2819 10.4735 17.1549 10.26C17.1436 10.2406 17.1323 10.2212 17.121 10.201C17.0838 10.1347 17.049 10.0668 17.0166 9.99802C17.0078 9.97861 16.9989 9.95839 16.99 9.93817C16.9293 9.79989 16.8784 9.65513 16.8387 9.50633C16.8185 9.42869 16.8007 9.35025 16.7862 9.271C16.7732 9.19821 16.7627 9.12381 16.7554 9.04941C16.7506 8.99927 16.7465 8.94913 16.7441 8.89899C16.7417 8.84885 16.7401 8.79791 16.7401 8.74615C16.7401 8.6952 16.7498 8.64425 16.753 8.5933C16.7546 8.56257 16.7684 8.53184 16.7684 8.5003V8.49949C16.7684 8.48009 16.7627 8.46149 16.7643 8.44208C16.766 8.42348 16.7643 8.40488 16.7668 8.38628C16.7732 8.33048 16.7797 8.27548 16.7894 8.22049C16.804 8.14124 16.8201 8.06199 16.8404 7.98516C16.88 7.83636 16.9301 7.69241 16.9908 7.55331C16.9948 7.54361 16.9997 7.5331 17.0037 7.52339C17.0078 7.51369 17.0126 7.50398 17.0175 7.49347C17.0498 7.42473 17.0846 7.3568 17.1218 7.29049C17.1331 7.27108 17.1444 7.25086 17.1557 7.23145C17.2948 6.99774 17.4647 6.78505 17.6604 6.59824C17.679 6.58045 17.6976 6.56265 17.717 6.54567C17.7493 6.51575 17.7833 6.48745 17.8173 6.45914C17.8399 6.44054 17.8617 6.42275 17.8844 6.40496C17.9345 6.36533 17.9863 6.32813 18.0397 6.29174C18.0469 6.28689 18.055 6.28123 18.0623 6.27637C18.1957 6.18742 18.3365 6.10897 18.4836 6.04185C18.4877 6.04023 18.4917 6.03781 18.4966 6.03619C18.6349 5.97392 18.7788 5.92297 18.9276 5.88254C18.9592 5.87364 18.9907 5.86555 19.0222 5.85828C19.171 5.82269 19.3247 5.79843 19.4816 5.7863C19.5317 5.78226 19.5827 5.77983 19.6336 5.77902C19.6595 5.77821 19.6846 5.77821 19.7104 5.77821C19.7363 5.77821 19.7614 5.77821 19.7873 5.77902C19.8382 5.77983 19.8883 5.78307 19.9393 5.7863C20.0962 5.79843 20.249 5.82269 20.3986 5.85828C20.4302 5.86555 20.4617 5.87364 20.4933 5.88254C20.6421 5.92297 20.786 5.97473 20.9243 6.03619C20.9283 6.03781 20.9332 6.04023 20.9372 6.04185C21.0844 6.10897 21.2251 6.18742 21.3586 6.27637C21.3658 6.28123 21.3739 6.28689 21.3812 6.29174C21.4338 6.32813 21.4855 6.36533 21.5357 6.40496C21.5583 6.42275 21.581 6.44054 21.6036 6.45914C21.6376 6.48745 21.6707 6.51575 21.7031 6.54567C21.7217 6.56265 21.7403 6.58045 21.7589 6.59743C21.9546 6.78424 22.1244 6.99774 22.2635 7.23145C22.2748 7.25086 22.2861 7.27027 22.2975 7.29049C22.3347 7.3568 22.3694 7.42473 22.4018 7.49347C22.4107 7.51288 22.4196 7.5331 22.4285 7.55331C22.4891 7.6916 22.5401 7.83636 22.5789 7.98516C22.5991 8.0628 22.6169 8.14124 22.6315 8.22049C22.6444 8.29328 22.6549 8.36768 22.6622 8.44208C22.6646 8.46553 22.6662 8.48898 22.6687 8.51243C22.6703 8.53912 22.6727 8.56581 22.6735 8.5933C22.6751 8.64425 22.6759 8.6952 22.6759 8.74615Z" fill="white"/>
<path d="M16.7506 8.4995C16.7514 8.5003 16.7523 8.5003 16.7523 8.5003V8.4995C16.7523 8.4995 16.7514 8.4995 16.7506 8.4995ZM16.6973 8.472C16.6997 8.47362 16.7029 8.47443 16.7054 8.47604C16.7191 8.48332 16.7296 8.49141 16.7506 8.4995C16.7474 8.49788 16.7442 8.49545 16.7409 8.49383C16.728 8.48575 16.711 8.47847 16.6973 8.472Z" fill="white"/>
<path d="M16.6973 8.472C16.711 8.47928 16.728 8.48575 16.7409 8.49383C16.7304 8.48817 16.7167 8.48251 16.7054 8.47685C16.7021 8.47443 16.6997 8.47362 16.6973 8.472Z" fill="white"/>
<path d="M16.7531 8.50029C16.7523 8.50029 16.7523 8.50029 16.7531 8.50029C16.7523 8.50029 16.7515 8.50029 16.7506 8.49948C16.7515 8.49948 16.7523 8.49948 16.7531 8.50029Z" fill="white"/>
<path d="M24.6137 14.5534V17.6265C24.6137 17.6896 24.6169 17.7017 24.5562 17.7017H14.8607C14.8001 17.7017 14.7467 17.6896 14.7467 17.6265V14.5534C14.7467 14.5041 14.7443 14.4548 14.7467 14.4062C14.7815 13.6744 15.0742 13.0104 15.5327 12.5131C15.5465 12.4985 15.5594 12.484 15.5732 12.4694C15.802 12.2308 16.0689 12.0327 16.3641 11.8863C16.3819 11.8774 16.3997 11.8685 16.4175 11.8605C16.4991 11.8224 16.5816 11.7877 16.6674 11.7577C16.686 11.7513 16.7054 11.7448 16.724 11.7383C16.8 11.7133 16.8776 11.6914 16.9569 11.6728C17.0531 11.765 17.1534 11.8524 17.2577 11.934C17.5246 12.1435 17.8157 12.3174 18.1238 12.454C18.182 12.4799 18.2403 12.5042 18.2993 12.5268C18.5266 12.615 18.7595 12.6805 18.9964 12.725C19.2293 12.7678 19.4663 12.7897 19.7056 12.7897C19.9798 12.7897 20.2499 12.7646 20.5135 12.708C20.5467 12.7007 20.579 12.6886 20.6122 12.6886C20.6615 12.6886 20.71 12.6886 20.7586 12.6886C20.8863 12.6886 21.0133 12.5883 21.1387 12.5381C21.188 12.5187 21.2373 12.4751 21.2867 12.4532C21.5276 12.3465 21.7557 12.2033 21.9692 12.0416C21.9927 12.0416 22.0169 12.0198 22.0396 12.0028C22.1803 11.8985 22.3145 11.7909 22.4431 11.6672C23.6602 11.9502 24.5619 13.0646 24.625 14.4038C24.6282 14.4523 24.6137 14.5041 24.6137 14.5534Z" fill="white"/>
<path d="M14.8538 20.4795C14.8538 20.5305 14.8522 20.5814 14.8498 20.6324C14.8473 20.6833 14.8433 20.7335 14.8384 20.7828C14.8312 20.8572 14.8206 20.9316 14.8077 21.0044C14.7932 21.0836 14.7762 21.1629 14.7551 21.2397C14.7155 21.3885 14.6654 21.5325 14.6047 21.6716C14.5958 21.6918 14.5869 21.7112 14.578 21.7314C14.5457 21.8002 14.5109 21.8681 14.4737 21.9344C14.4624 21.9538 14.4511 21.974 14.4397 21.9934C14.3007 22.2272 14.1308 22.4398 13.9359 22.6267C13.9173 22.6444 13.8987 22.6622 13.8793 22.6792C13.847 22.7091 13.813 22.7374 13.7798 22.7657C13.7572 22.7843 13.7354 22.8021 13.7119 22.8199C13.6618 22.8596 13.61 22.8968 13.5575 22.9331C13.5502 22.938 13.5421 22.9437 13.5348 22.9485C13.4645 22.9954 13.3925 23.0391 13.3189 23.0803C13.2518 23.1175 13.1838 23.1515 13.1135 23.183C13.1094 23.1847 13.1054 23.1871 13.1005 23.1887C12.9623 23.251 12.8183 23.3019 12.6695 23.3424C12.638 23.3512 12.6064 23.3593 12.5749 23.3666C12.4261 23.4022 12.2724 23.4265 12.1155 23.4386C12.0654 23.4426 12.0145 23.4451 11.9635 23.4459C11.9384 23.4467 11.9126 23.4467 11.8867 23.4467C11.8608 23.4467 11.8357 23.4467 11.8099 23.4459C11.7589 23.4451 11.7088 23.4418 11.6578 23.4386C11.5009 23.4265 11.3473 23.4022 11.1985 23.3666C11.1669 23.3593 11.1354 23.3512 11.1039 23.3424C10.9551 23.3019 10.8111 23.2502 10.6728 23.1887C10.6688 23.1871 10.6647 23.1847 10.6599 23.183C10.5976 23.1547 10.5361 23.124 10.4763 23.0917C10.3946 23.048 10.3154 22.9995 10.2385 22.9485C10.2305 22.9437 10.2232 22.938 10.2159 22.9331C10.1633 22.8968 10.1116 22.8596 10.0606 22.8199C10.038 22.8021 10.0153 22.7843 9.99351 22.7657C9.95955 22.7374 9.92639 22.7091 9.89323 22.6792C9.85684 22.6461 9.82126 22.6129 9.78729 22.5781C9.61261 22.4034 9.45977 22.2069 9.3328 21.9934C9.32148 21.974 9.31016 21.9546 9.29884 21.9344C9.26164 21.8681 9.22686 21.8002 9.19451 21.7314C9.18562 21.712 9.17672 21.6918 9.16783 21.6716C9.10717 21.5333 9.05623 21.3885 9.0166 21.2397C8.99638 21.1621 8.97859 21.0836 8.96403 21.0044C8.95109 20.9316 8.94058 20.8572 8.9333 20.7828C8.92845 20.7327 8.92441 20.6825 8.92198 20.6324C8.91956 20.5823 8.91794 20.5313 8.91794 20.4795C8.91794 20.4278 8.91713 20.3777 8.91956 20.3267C8.92117 20.296 8.9236 20.2644 8.9236 20.2337V20.2329C8.9236 20.2135 8.92926 20.1949 8.93088 20.1755C8.93249 20.1569 8.93573 20.1383 8.93816 20.1197C8.94462 20.0639 8.95352 20.0089 8.96323 19.9539C8.97778 19.8746 8.99476 19.7954 9.01579 19.7186C9.05542 19.5698 9.10556 19.4258 9.16702 19.2867C9.17106 19.277 9.17591 19.2665 9.17996 19.2568C9.184 19.2471 9.18885 19.2374 9.19371 19.2269C9.22605 19.1581 9.26083 19.0902 9.29803 19.0239C9.30935 19.0045 9.32067 18.9843 9.33199 18.9648C9.47109 18.7311 9.64092 18.5184 9.83662 18.3316C9.85522 18.3138 9.87382 18.2961 9.89323 18.2791C9.92558 18.2491 9.95955 18.2208 9.99351 18.1925C10.0162 18.1739 10.038 18.1561 10.0606 18.1384C10.1108 18.0987 10.1625 18.0615 10.2159 18.0251C10.2232 18.0203 10.2313 18.0146 10.2385 18.0098C10.372 17.9208 10.5127 17.8424 10.6599 17.7752C10.6639 17.7736 10.668 17.7712 10.6728 17.7696C10.8111 17.7073 10.9551 17.6564 11.1039 17.6159C11.1354 17.607 11.1669 17.599 11.1985 17.5917C11.3473 17.5561 11.5009 17.5318 11.6578 17.5197C11.708 17.5157 11.7589 17.5132 11.8099 17.5124C11.8357 17.5116 11.8608 17.5116 11.8867 17.5116C11.9126 17.5116 11.9376 17.5116 11.9635 17.5124C12.0145 17.5132 12.0646 17.5165 12.1155 17.5197C12.2724 17.5318 12.4253 17.5561 12.5749 17.5917C12.6064 17.599 12.638 17.607 12.6695 17.6159C12.8183 17.6564 12.9623 17.7081 13.1005 17.7696C13.1046 17.7712 13.1094 17.7736 13.1135 17.7752C13.2607 17.8424 13.4014 17.9208 13.5348 18.0098C13.5421 18.0146 13.5502 18.0203 13.5575 18.0251C13.61 18.0615 13.6618 18.0987 13.7119 18.1384C13.7346 18.1561 13.7572 18.1739 13.7798 18.1925C13.8138 18.2208 13.847 18.2491 13.8793 18.2791C13.8979 18.2961 13.9165 18.3138 13.9351 18.3308C14.1308 18.5176 14.3007 18.7311 14.4397 18.9648C14.4511 18.9843 14.4624 19.0037 14.4737 19.0239C14.5109 19.0902 14.5457 19.1581 14.578 19.2269C14.5869 19.2463 14.5958 19.2665 14.6047 19.2867C14.6654 19.425 14.7163 19.5698 14.7551 19.7186C14.7754 19.7962 14.7932 19.8746 14.8077 19.9539C14.8206 20.0267 14.8312 20.1011 14.8384 20.1755C14.8409 20.1989 14.8425 20.2224 14.8449 20.2458C14.8465 20.2725 14.849 20.2992 14.8498 20.3267C14.853 20.3777 14.8538 20.4286 14.8538 20.4795Z" fill="white"/>
<path d="M8.92838 20.2329C8.92919 20.2329 8.93 20.2337 8.93 20.2337V20.2329C8.93 20.2337 8.92919 20.2329 8.92838 20.2329ZM8.87501 20.2054C8.87743 20.207 8.88067 20.2078 8.88309 20.2094C8.89684 20.2167 8.90736 20.2248 8.92838 20.2329C8.92515 20.2313 8.92191 20.2288 8.91868 20.2272C8.90574 20.2199 8.88876 20.2126 8.87501 20.2054Z" fill="white"/>
<path d="M8.87501 20.2054C8.88876 20.2127 8.90574 20.2191 8.91868 20.2272C8.90816 20.2216 8.89442 20.2159 8.88309 20.2102C8.87986 20.2086 8.87743 20.207 8.87501 20.2054Z" fill="white"/>
<path d="M8.93082 20.2337C8.93001 20.2345 8.93001 20.2345 8.93082 20.2337C8.93001 20.2337 8.9292 20.2337 8.92839 20.2329C8.9292 20.2329 8.93001 20.2337 8.93082 20.2337Z" fill="white"/>
<path d="M16.8503 26.2876V29.3607C16.8503 29.4238 16.7945 29.4278 16.7338 29.4278H7.03911C6.97845 29.4278 6.90324 29.4238 6.90324 29.3607V26.2876C6.90324 26.2383 6.91133 26.189 6.91376 26.1405C6.94853 25.4086 7.24694 24.7446 7.70548 24.2473C7.71922 24.2327 7.73459 24.2182 7.74834 24.2036C7.9772 23.965 8.24569 23.7669 8.54006 23.6205C8.55785 23.6116 8.57645 23.6028 8.59424 23.5947C8.67592 23.5567 8.75921 23.5219 8.84413 23.492C8.86273 23.4855 8.88214 23.479 8.90155 23.4725C8.97756 23.4475 9.0552 23.4256 9.13445 23.407C9.23069 23.4992 9.33177 23.5866 9.43529 23.6683C9.70216 23.8777 9.99329 24.0516 10.3014 24.1883C10.3596 24.2141 10.4179 24.2384 10.4769 24.261C10.7041 24.3492 10.937 24.4147 11.174 24.4592C11.4069 24.502 11.6439 24.5239 11.8832 24.5239C12.1574 24.5239 12.4275 24.4947 12.6911 24.4389C12.7243 24.4317 12.7566 24.4155 12.7898 24.4155C12.8391 24.4155 12.8876 24.4155 12.9362 24.4155C13.0639 24.4155 13.1909 24.3185 13.3162 24.2691C13.3656 24.2497 13.4149 24.2036 13.4642 24.1818C13.7052 24.075 13.9333 23.9303 14.1468 23.7685C14.1702 23.7685 14.1945 23.7507 14.2171 23.7338C14.3579 23.6294 14.4921 23.5235 14.6207 23.4006C15.8378 23.6836 16.7686 24.7988 16.8317 26.138C16.8357 26.1849 16.8503 26.2383 16.8503 26.2876Z" fill="white"/>
<path d="M31.7158 20.9146C31.7158 20.9656 31.7142 21.0165 31.7118 21.0675C31.7094 21.1184 31.7053 21.1685 31.7005 21.2179C31.6932 21.2923 31.6827 21.3667 31.6697 21.4395C31.6552 21.5187 31.6382 21.598 31.6172 21.6748C31.5776 21.8236 31.5274 21.9675 31.4668 22.1066C31.4579 22.1268 31.449 22.1463 31.4401 22.1665C31.4077 22.2352 31.373 22.3031 31.3358 22.3695C31.3244 22.3889 31.3131 22.4091 31.3018 22.4285C31.1627 22.6622 30.9929 22.8749 30.798 23.0617C30.7794 23.0795 30.7608 23.0973 30.7414 23.1143C30.709 23.1442 30.675 23.1725 30.6419 23.2008C30.6192 23.2194 30.5974 23.2372 30.574 23.255C30.5238 23.2946 30.4721 23.3318 30.4195 23.3682C30.4122 23.3731 30.4041 23.3787 30.3969 23.3836C30.3265 23.4305 30.2545 23.4741 30.1809 23.5154C30.1138 23.5526 30.0459 23.5866 29.9755 23.6181C29.9715 23.6197 29.9674 23.6221 29.9626 23.6238C29.8243 23.686 29.6803 23.737 29.5315 23.7774C29.5 23.7863 29.4685 23.7944 29.4369 23.8017C29.2881 23.8373 29.1345 23.8615 28.9776 23.8736C28.9274 23.8777 28.8765 23.8801 28.8255 23.8809C28.7997 23.8817 28.7746 23.8817 28.7487 23.8817C28.7228 23.8817 28.6978 23.8817 28.6719 23.8809C28.6209 23.8801 28.5708 23.8769 28.5199 23.8736C28.363 23.8615 28.2093 23.8373 28.0605 23.8017C28.029 23.7944 27.9974 23.7863 27.9659 23.7774C27.8171 23.737 27.6731 23.6852 27.5349 23.6238C27.5308 23.6221 27.5268 23.6197 27.5219 23.6181C27.4596 23.5898 27.3982 23.5591 27.3383 23.5267C27.2567 23.483 27.1774 23.4345 27.1006 23.3836C27.0925 23.3787 27.0852 23.3731 27.0779 23.3682C27.0254 23.3318 26.9736 23.2946 26.9227 23.255C26.9 23.2372 26.8774 23.2194 26.8555 23.2008C26.8216 23.1725 26.7884 23.1442 26.7553 23.1143C26.7189 23.0811 26.6833 23.048 26.6493 23.0132C26.4746 22.8385 26.3218 22.642 26.1948 22.4285C26.1835 22.4091 26.1722 22.3897 26.1609 22.3695C26.1237 22.3031 26.0889 22.2352 26.0566 22.1665C26.0477 22.1471 26.0388 22.1268 26.0299 22.1066C25.9692 21.9683 25.9183 21.8236 25.8786 21.6748C25.8584 21.5971 25.8406 21.5187 25.8261 21.4395C25.8131 21.3667 25.8026 21.2923 25.7953 21.2179C25.7905 21.1677 25.7864 21.1176 25.784 21.0675C25.7816 21.0173 25.78 20.9664 25.78 20.9146C25.78 20.8637 25.7589 20.8127 25.7614 20.7618C25.763 20.731 25.7452 20.7003 25.7452 20.6688V20.668C25.7452 20.6485 25.7711 20.6299 25.7727 20.6105C25.7743 20.5919 25.7881 20.5733 25.7905 20.5547C25.797 20.4989 25.8107 20.4439 25.8212 20.3889C25.8358 20.3097 25.856 20.2304 25.8762 20.1536C25.9158 20.0048 25.9676 19.8609 26.0282 19.7218C26.0323 19.7121 26.0379 19.7016 26.042 19.6918C26.046 19.6821 26.0509 19.6724 26.0557 19.6619C26.0881 19.5932 26.1229 19.5253 26.1601 19.4589C26.1714 19.4395 26.1827 19.4193 26.194 19.3999C26.3331 19.1662 26.503 18.9535 26.6987 18.7667C26.7173 18.7489 26.7359 18.7311 26.7553 18.7141C26.7876 18.6842 26.8216 18.6559 26.8555 18.6276C26.8782 18.609 26.9 18.5912 26.9227 18.5734C26.9728 18.5338 27.0246 18.4966 27.0779 18.4602C27.0852 18.4553 27.0933 18.4497 27.1006 18.4448C27.234 18.3559 27.3747 18.2774 27.5219 18.2103C27.526 18.2087 27.53 18.2063 27.5349 18.2046C27.6731 18.1424 27.8171 18.0914 27.9659 18.051C27.9974 18.0421 28.029 18.034 28.0605 18.0267C28.2093 17.9911 28.363 17.9669 28.5199 17.9548C28.57 17.9507 28.6209 17.9483 28.6719 17.9475C28.697 17.9467 28.7228 17.9467 28.7487 17.9467C28.7746 17.9467 28.7997 17.9467 28.8255 17.9475C28.8765 17.9483 28.9266 17.9515 28.9776 17.9548C29.1345 17.9669 29.2873 17.9911 29.4369 18.0267C29.4685 18.034 29.5 18.0421 29.5315 18.051C29.6803 18.0914 29.8243 18.1432 29.9626 18.2046C29.9666 18.2063 29.9715 18.2087 29.9755 18.2103C30.1227 18.2774 30.2634 18.3559 30.3969 18.4448C30.4041 18.4497 30.4122 18.4553 30.4195 18.4602C30.4721 18.4966 30.5238 18.5338 30.574 18.5734C30.5966 18.5912 30.6192 18.609 30.6419 18.6276C30.6759 18.6559 30.709 18.6842 30.7414 18.7141C30.76 18.7311 30.7786 18.7489 30.7972 18.7659C30.9929 18.9527 31.1627 19.1662 31.3018 19.3999C31.3131 19.4193 31.3244 19.4387 31.3358 19.4589C31.373 19.5253 31.4077 19.5932 31.4401 19.6619C31.449 19.6813 31.4579 19.7016 31.4668 19.7218C31.5274 19.8601 31.5784 20.0048 31.6172 20.1536C31.6374 20.2313 31.6552 20.3097 31.6697 20.3889C31.6827 20.4617 31.6932 20.5361 31.7005 20.6105C31.7029 20.634 31.7045 20.6574 31.7069 20.6809C31.7086 20.7076 31.711 20.7343 31.7118 20.7618C31.7142 20.8127 31.7158 20.8628 31.7158 20.9146Z" fill="white"/>
<path d="M25.7904 20.6671C25.7912 20.6671 25.7921 20.6679 25.7921 20.6679V20.6671C25.7912 20.6679 25.7904 20.6679 25.7904 20.6671ZM25.7363 20.6404C25.7387 20.642 25.7419 20.6429 25.7443 20.6445C25.7581 20.6517 25.7686 20.6598 25.7896 20.6679C25.7864 20.6663 25.7832 20.6639 25.7799 20.6623C25.767 20.6542 25.7508 20.6469 25.7363 20.6404Z" fill="white"/>
<path d="M25.7363 20.6404C25.75 20.6477 25.767 20.6542 25.7799 20.6623C25.7694 20.6566 25.7557 20.6509 25.7443 20.6453C25.7419 20.6429 25.7395 20.6412 25.7363 20.6404Z" fill="white"/>
<path d="M25.7921 20.6679C25.7921 20.6688 25.7921 20.6688 25.7921 20.6679C25.7913 20.6679 25.7904 20.6679 25.7896 20.6671C25.7904 20.6679 25.7913 20.6679 25.7921 20.6679Z" fill="white"/>
<path d="M33.6711 26.7219V29.795C33.6711 29.858 33.6557 29.913 33.5959 29.913H23.9004C23.8397 29.913 23.8049 29.858 23.8049 29.795V26.7219C23.8049 26.6726 23.7928 26.6232 23.7952 26.5747C23.83 25.8428 24.1179 25.1789 24.5764 24.6815C24.5902 24.667 24.6007 24.6524 24.6145 24.6379C24.8433 24.3993 25.1094 24.2012 25.4038 24.0548C25.4215 24.0459 25.4385 24.037 25.4563 24.0289C25.538 23.9909 25.6205 23.9561 25.7054 23.9262C25.724 23.9197 25.7434 23.9133 25.762 23.9068C25.838 23.8817 25.9157 23.8599 25.9949 23.8413C26.0911 23.9335 26.1914 24.0208 26.2958 24.1025C26.5626 24.312 26.8538 24.4858 27.1619 24.6225C27.2201 24.6484 27.2783 24.6726 27.3374 24.6953C27.5646 24.7834 27.7975 24.8489 28.0345 24.8934C28.2674 24.9363 28.5043 24.9581 28.7437 24.9581C29.0178 24.9581 29.2879 24.9136 29.5516 24.8578C29.5847 24.8506 29.6171 24.819 29.6502 24.819C29.6996 24.819 29.7481 24.819 29.7966 24.819C29.9244 24.819 30.0514 24.7373 30.1767 24.688C30.226 24.6686 30.2754 24.6557 30.3247 24.6338C30.5657 24.5271 30.7938 24.4147 31.0072 24.2529C31.0307 24.2529 31.055 24.2101 31.0776 24.1923C31.2183 24.0879 31.3526 23.9691 31.4811 23.8461C32.6982 24.1292 33.6088 25.2387 33.6719 26.5771C33.6768 26.6257 33.6711 26.6726 33.6711 26.7219Z" fill="white"/>
</g>
<defs>
<filter id="filter0_d" x="0" y="0" width="48" height="48" filterUnits="userSpaceOnUse" color-interpolation-filters="sRGB">
<feFlood flood-opacity="0" result="BackgroundImageFix"/>
<feColorMatrix in="SourceAlpha" type="matrix" values="0 0 0 0 0 0 0 0 0 0 0 0 0 0 0 0 0 0 127 0"/>
<feOffset dx="4" dy="4"/>
<feGaussianBlur stdDeviation="2"/>
<feColorMatrix type="matrix" values="0 0 0 0 0 0 0 0 0 0 0 0 0 0 0 0 0 0 0.25 0"/>
<feBlend mode="normal" in2="BackgroundImageFix" result="effect1_dropShadow"/>
<feBlend mode="normal" in="SourceGraphic" in2="effect1_dropShadow" result="shape"/>
</filter>
</defs>
</svg>
