<svg width="90" height="90" viewBox="0 0 90 90" fill="none" xmlns="http://www.w3.org/2000/svg">
<path d="M44.9615 17.7073C46.468 17.7073 47.9621 17.7883 49.4384 17.9504V13.7708H40.571V17.9414C42.0199 17.7863 43.4838 17.7073 44.9615 17.7073Z" fill="#45F9A3"/>
<path d="M75.6985 32.6633L78.018 30.3438C79.7051 28.6567 79.7051 25.9205 78.018 24.2334L77.4365 23.6518C75.7494 21.9647 73.0131 21.9647 71.326 23.6518L68.7634 26.2144C71.2354 28.0271 73.5885 30.1887 75.6985 32.6633Z" fill="#45F9A3"/>
<path d="M13.9521 32.986C15.9914 30.5464 18.2924 28.3635 20.8172 26.4684L18.5973 24.2464C16.9102 22.5593 14.1739 22.5593 12.4868 24.2464L11.9052 24.8287C10.2181 26.5151 10.2181 29.2514 11.9052 30.9384L13.9521 32.986Z" fill="#45F9A3"/>
<path d="M39.5329 12.1141H50.3901C51.8712 12.1141 53.0721 10.9131 53.0721 9.43204C53.0721 7.95094 51.8712 6.75 50.3901 6.75H39.5329C38.0518 6.75 36.8508 7.95094 36.8508 9.43204C36.8508 10.9131 38.0518 12.1141 39.5329 12.1141Z" fill="#45F9A3"/>
<path d="M44.9615 20.1139C25.7011 20.1139 10.0195 35.7838 10.0195 55.0559C10.0195 74.3252 25.6943 90 44.9615 90C64.2288 90 79.9036 74.3252 79.9036 55.0559C79.9036 35.8264 64.2673 20.1139 44.9615 20.1139ZM44.9615 84.0358C28.9819 84.0358 15.9817 71.0355 15.9817 55.0559C15.9817 39.0735 28.9874 26.076 44.9615 26.076C60.9412 26.076 73.9414 39.0763 73.9414 55.0559C73.9414 71.0355 60.9412 84.0358 44.9615 84.0358Z" fill="#45F9A3"/>
</svg>
