<svg width="30" height="30" viewBox="0 0 30 30" fill="none" xmlns="http://www.w3.org/2000/svg">
<g clip-path="url(#clip0)">
<path d="M25.6043 4.39601C19.7436 -1.46463 10.2573 -1.46539 4.39588 4.39601C-1.46469 10.2566 -1.46557 19.743 4.39588 25.6045C10.2566 31.4651 19.7429 31.4659 25.6043 25.6045C31.4649 19.7438 31.4658 10.2575 25.6043 4.39601ZM15.0001 29.0596C7.24777 29.0596 0.940743 22.7525 0.940743 15.0002C0.940743 7.24789 7.24777 0.940865 15.0001 0.940865C22.7524 0.940865 29.0594 7.24789 29.0594 15.0002C29.0594 22.7525 22.7525 29.0596 15.0001 29.0596Z" fill="#733999"/>
<path d="M19.4521 17.8119H17.8118V16.4034C18.8317 15.636 19.5295 14.4627 19.6629 13.1255H20.1551C21.1887 13.1255 21.8684 12.0414 21.4236 11.1138C21.5084 11.0289 21.561 10.9117 21.561 10.7823V9.84496C21.561 6.2272 18.6177 3.28394 15 3.28394C11.3822 3.28394 8.43894 6.2272 8.43894 9.84496V11.2509C8.43894 11.3804 8.49143 11.4976 8.57637 11.5824C8.13133 12.5104 8.81163 13.5941 9.84488 13.5941H10.4078C10.6405 14.7354 11.2892 15.7271 12.1881 16.4034V17.8119H10.5478C8.35136 17.8119 6.56436 19.5989 6.56436 21.7954V23.5903C6.56436 23.7207 6.61867 23.8451 6.71421 23.9338C11.3816 28.2663 18.6125 28.2718 23.2858 23.9338C23.3813 23.8451 23.4356 23.7206 23.4356 23.5903V21.7954C23.4356 19.5989 21.6486 17.8119 19.4521 17.8119ZM20.1551 12.1882H19.6864V11.2509H20.1551C20.4135 11.2509 20.6237 11.4611 20.6237 11.7195C20.6237 11.9779 20.4135 12.1882 20.1551 12.1882ZM9.37623 9.84496C9.37623 6.744 11.899 4.22123 15 4.22123C18.1009 4.22123 20.6237 6.744 20.6237 9.84496V10.3136C20.2959 10.3136 20.0142 10.3136 19.6864 10.3136V9.84496C19.6864 9.58615 19.4766 9.37632 19.2178 9.37632C18.4945 9.37632 17.8231 9.01704 17.4219 8.41524C17.2721 8.19041 17.1872 7.99909 16.9208 7.97267C16.781 7.95837 16.6425 8.00834 16.5432 8.10764C15.7251 8.92577 14.6374 9.37632 13.4804 9.37632H10.7822C10.5234 9.37632 10.3136 9.58615 10.3136 9.84496V10.7823C9.98576 10.7823 9.70411 10.7823 9.37629 10.7823V9.84496H9.37623ZM9.84488 12.6568C9.58648 12.6568 9.37623 12.4466 9.37623 12.1882C9.37623 11.9298 9.58648 11.7195 9.84488 11.7195H10.3135V12.6568H9.84488ZM11.2508 12.6568C11.2508 11.8424 11.2508 11.1256 11.2508 10.3136H13.4803C14.7009 10.3136 15.8582 9.90132 16.7931 9.1427C17.2804 9.75756 17.979 10.161 18.7491 10.2782V12.6568C18.7491 14.7241 17.0673 16.406 15 16.406C12.9327 16.406 11.2508 14.7242 11.2508 12.6568ZM16.8745 16.9508V17.8119C16.8745 18.8456 16.0336 19.6865 15 19.6865C13.9663 19.6865 13.1254 18.8456 13.1254 17.8119V16.9508C14.289 17.4607 15.6496 17.4876 16.8745 16.9508ZM22.4983 23.3835C18.2319 27.2042 11.7653 27.2017 7.50165 23.3835V21.7955C7.50165 20.1158 8.86816 18.7493 10.5478 18.7493H12.3493C12.7362 19.8402 13.778 20.6238 15 20.6238C16.2219 20.6238 17.2637 19.8402 17.6506 18.7493H19.4521C21.1318 18.7493 22.4983 20.1158 22.4983 21.7955V23.3835Z" fill="#733999"/>
</g>
<defs>
<clipPath id="clip0">
<rect width="30" height="30" fill="white"/>
</clipPath>
</defs>
</svg>
