<svg width="20" height="20" viewBox="0 0 20 20" fill="none" xmlns="http://www.w3.org/2000/svg">
<path d="M10 0C4.486 0 0 4.486 0 10C0 15.0908 3.82375 19.305 8.75 19.922C8.75 19.922 9.30967 20 10 20C10.6903 20 11.25 19.922 11.25 19.922C16.1763 19.305 20 15.0908 20 10C20 4.486 15.514 0 10 0ZM10 17.5C5.8645 17.5 2.5 14.1355 2.5 10C2.5 5.8645 5.8645 2.5 10 2.5C14.1355 2.5 17.5 5.8645 17.5 10C17.5 14.1355 14.1355 17.5 10 17.5Z" fill="#FF1368"/>
<path d="M13.5355 6.46451C13.0474 5.97635 12.2559 5.97635 11.7678 6.46451L10 8.23226L8.23226 6.46451C7.74426 5.97643 6.95276 5.97635 6.46451 6.46451C5.97635 6.9526 5.97635 7.7441 6.46451 8.23226L8.23226 10L6.46451 11.7678C5.97635 12.2559 5.97635 13.0473 6.46451 13.5355C6.9526 14.0237 7.7441 14.0238 8.23226 13.5355L10 11.7678L11.7678 13.5355C12.2558 14.0237 13.0473 14.0237 13.5355 13.5355C14.0237 13.0474 14.0237 12.2559 13.5355 11.7678L11.7678 10L13.5355 8.23226C14.0237 7.7441 14.0237 6.9526 13.5355 6.46451Z" fill="#FF1368"/>
</svg>
