<svg width="30" height="30" viewBox="0 0 30 30" fill="none" xmlns="http://www.w3.org/2000/svg">
<path d="M15.7209 15.5035H13.2714C12.7192 15.5035 12.2715 15.9513 12.2715 16.5035V18.953C12.2715 19.5052 12.7192 19.9529 13.2714 19.9529H15.7209C16.2731 19.9529 16.7209 19.5052 16.7209 18.953V16.5035C16.7209 15.9513 16.2731 15.5035 15.7209 15.5035Z" fill="#61E9FC"/>
<path d="M21.1071 15.5035H18.6577C18.1054 15.5035 17.6577 15.9513 17.6577 16.5035V18.953C17.6577 19.5052 18.1054 19.9529 18.6577 19.9529H21.1071C21.6594 19.9529 22.1071 19.5052 22.1071 18.953V16.5035C22.107 15.9513 21.6593 15.5035 21.1071 15.5035Z" fill="#FC5FE3"/>
<path d="M15.7209 20.8897H13.2714C12.7192 20.8897 12.2715 21.3374 12.2715 21.8897V24.3391C12.2715 24.8914 12.7192 25.3391 13.2714 25.3391H15.7209C16.2731 25.3391 16.7209 24.8914 16.7209 24.3391V21.8897C16.7209 21.3374 16.2731 20.8897 15.7209 20.8897Z" fill="#FC5F5F"/>
<path d="M21.1071 20.8897H18.6577C18.1054 20.8897 17.6577 21.3374 17.6577 21.8897V24.3391C17.6577 24.8914 18.1054 25.3391 18.6577 25.3391H21.1071C21.6594 25.3391 22.1071 24.8914 22.1071 24.3391V21.8897C22.107 21.3374 21.6593 20.8897 21.1071 20.8897Z" fill="#F9FC5F"/>
<path d="M21.8119 12.0323C21.8119 11.3531 21.8119 6.03346 21.8119 5.30197C21.8119 5.29852 21.8121 5.29512 21.8121 5.29166C21.8121 1.77873 16.777 0 12.5229 0C7.52025 0 3.23389 2.17096 3.23389 5.2916C3.23389 5.29506 3.23418 5.29846 3.23418 5.30191C3.23418 6.11701 3.23418 23.9227 3.23418 24.7067C3.23418 28.5001 9.45578 30.7224 15.1803 29.7864C15.8365 29.9266 16.5112 29.9984 17.1895 29.9984C22.4702 29.9984 26.7664 25.7021 26.7664 20.4215C26.7663 16.8469 24.7991 13.6798 21.8119 12.0323ZM12.5229 1.99992C16.7465 1.99992 19.8079 3.72299 19.8121 5.28844C19.8121 5.28955 19.812 5.29066 19.812 5.29178C19.812 7.79912 12.7596 9.81492 7.72141 7.71703C6.18121 7.07555 5.23404 6.15785 5.23404 5.29178C5.23404 5.29066 5.23393 5.28955 5.23393 5.28844C5.23803 3.71853 8.31074 1.99992 12.5229 1.99992ZM5.23305 8.62898C8.90195 11.2371 16.141 11.2361 19.812 8.6298V11.2071C16.0643 10.1387 11.9093 11.4388 9.4818 14.7358C8.00359 14.4076 5.58918 13.4918 5.26434 12.0289C5.2208 11.8375 5.23076 12.0023 5.23305 8.62898ZM7.61459 20.6138C6.63877 20.1898 5.33887 19.3936 5.23838 18.3386C5.23199 18.2718 5.23404 18.4179 5.23404 15.1117C6.13205 15.7489 7.34389 16.242 8.43367 16.5374C7.88992 17.7623 7.58529 19.1613 7.61459 20.6138ZM5.23404 24.7068V21.571C5.97842 22.1043 6.97199 22.5638 7.9266 22.8623C8.46232 24.9011 9.65172 26.6764 11.2631 27.9467C7.74232 27.6528 5.23404 26.1279 5.23404 24.7068ZM17.1894 27.9986C13.0302 27.9986 9.61252 24.6304 9.61252 20.4216C9.61252 16.2494 13.007 12.844 17.1894 12.844C21.3739 12.844 24.7663 16.2366 24.7663 20.4216C24.7664 24.5995 21.3674 27.9986 17.1894 27.9986Z" fill="#733999"/>
</svg>
