<svg width="30" height="30" viewBox="0 0 30 30" fill="none" xmlns="http://www.w3.org/2000/svg">
<path d="M22.8949 6.30797L22.8528 5.89119L22.0419 6.70342C19.7041 4.65937 16.644 3.42035 13.2942 3.42035C5.95201 3.42035 0 9.37043 0 16.7102C0 24.05 5.95201 30.0001 13.2942 30.0001C20.6363 30.0001 26.5883 24.05 26.5883 16.7102C26.5883 13.3522 25.3419 10.2856 23.2871 7.94607L24.1097 7.12207L23.7152 7.0974C23.2853 7.07051 22.9381 6.7364 22.8949 6.30797ZM24.1574 16.7102C24.1574 22.6983 19.2842 27.5699 13.2942 27.5699C7.30424 27.5699 2.43094 22.6983 2.43094 16.7102C2.43094 10.7222 7.30418 5.85052 13.2942 5.85052C15.9695 5.85052 18.4215 6.82283 20.3166 8.43181L19.0699 9.68062C17.4973 8.38711 15.4849 7.60939 13.2942 7.60939C8.27438 7.60939 4.19039 11.692 4.19039 16.7102C4.19039 21.7284 8.27438 25.8111 13.2942 25.8111C18.3141 25.8111 22.398 21.7284 22.398 16.7102C22.398 14.514 21.6158 12.497 20.3153 10.923L21.5619 9.67429C23.1794 11.5709 24.1574 14.0283 24.1574 16.7102ZM20.3021 16.7102C20.3021 20.5731 17.1584 23.7159 13.2942 23.7159C9.42996 23.7159 6.28623 20.5731 6.28623 16.7102C6.28623 12.8473 9.43002 9.70459 13.2942 9.70459C14.9075 9.70459 16.395 10.2527 17.5808 11.1721L16.3256 12.4294C15.4689 11.8213 14.4226 11.4635 13.2942 11.4635C10.4002 11.4635 8.04568 13.8172 8.04568 16.7102C8.04568 19.6033 10.4002 21.957 13.2942 21.957C16.1882 21.957 18.5426 19.6033 18.5426 16.7102C18.5426 15.5788 18.1825 14.5299 17.5709 13.672L18.8261 12.4145C19.7507 13.6017 20.3021 15.0927 20.3021 16.7102ZM15.3768 18.7921C14.8026 19.3661 14.0484 19.6531 13.2942 19.6531C12.5399 19.6531 11.7857 19.3661 11.2116 18.7922C10.0632 17.6442 10.0632 15.7763 11.2116 14.6284C11.7679 14.0723 12.5075 13.766 13.2942 13.766C13.7771 13.766 14.2421 13.8819 14.6581 14.0998L13.2323 15.5279C12.9389 15.5429 12.6649 15.6629 12.4556 15.8721C11.9933 16.3343 11.9933 17.0863 12.4556 17.5485C12.9179 18.0106 13.6702 18.0107 14.1325 17.5485C14.3481 17.333 14.4618 17.0544 14.4763 16.7716L15.9026 15.3429C16.4844 16.4534 16.3091 17.86 15.3768 18.7921Z" fill="#733999"/>
<path d="M29.7215 1.50066C30.0647 1.15689 30.0642 0.600074 29.7203 0.256949C29.3764 -0.0861177 28.8194 -0.0855904 28.4761 0.258179L27.114 1.62259L28.3581 2.8663L29.7215 1.50066Z" fill="#733999"/>
<path d="M25.7736 0.282521C25.4311 -0.0599005 24.8761 -0.0610137 24.5321 0.279943L22.7886 2.00828C22.6002 2.19508 22.5061 2.45699 22.5328 2.72108L22.8528 5.89123L27.1142 1.62268L25.7736 0.282521Z" fill="#D5208F"/>
<path d="M29.7424 4.24996L28.3583 2.86627L24.1097 7.12194L27.5108 7.33451C27.5291 7.33569 27.5474 7.33621 27.5657 7.33621C27.8012 7.33621 28.0278 7.2417 28.1938 7.07248L29.7484 5.48746C30.0862 5.14311 30.0835 4.59098 29.7424 4.24996Z" fill="#D5208F"/>
</svg>
