<svg width="35" height="35" viewBox="0 0 35 35" fill="none" xmlns="http://www.w3.org/2000/svg">
<path d="M18.8339 20.9817C18.0012 20.9817 17.1612 20.9744 16.3212 20.9918C16.2308 20.9936 16.1093 21.1233 16.0591 21.2201C15.3415 22.607 14.1691 23.3146 12.5557 23.3137C11.6637 23.3128 10.8748 22.9895 10.1672 22.4088C10.1024 22.5093 10.0448 22.5978 9.98824 22.6873C9.43036 23.5721 8.90536 24.4778 8.3064 25.337C7.66909 26.251 6.81721 26.933 5.68229 27.2553C4.2415 27.6634 1.89679 26.3587 2.07027 24.4705C2.18896 23.1813 2.30948 21.8921 2.41996 20.6019C2.57975 18.742 2.74684 16.8822 2.88105 15.0204C2.99245 13.4774 3.70189 12.2703 4.99203 11.3518C5.12168 11.2596 5.22212 11.1035 5.2842 10.9574C5.38555 10.7163 5.46407 10.4634 5.51521 10.2087C5.6549 9.50745 6.15525 9.1331 6.81265 8.95049C7.82157 8.67018 8.81314 8.79892 9.76089 9.2107C10.2311 9.41523 10.5123 9.7768 10.5963 10.2717C10.6383 10.5191 10.6904 10.7647 10.7342 11.0122C10.8145 11.4669 11.0337 11.6467 11.5121 11.6467C15.5305 11.6467 19.5488 11.6467 23.5671 11.6467C23.9378 11.6467 24.1825 11.4468 24.2501 11.0925C24.304 10.8168 24.3688 10.5419 24.4135 10.2653C24.4939 9.76584 24.7824 9.41158 25.2508 9.20705C26.1666 8.80805 27.1262 8.68205 28.1086 8.92857C28.8236 9.10844 29.3559 9.49101 29.4974 10.2434C29.6115 10.8496 29.9083 11.308 30.4433 11.7161C31.5088 12.5306 32.0256 13.6627 32.1242 14.9666C32.2347 16.4275 32.3479 17.8883 32.4748 19.3483C32.6209 21.0384 32.7926 22.7266 32.9341 24.4166C33.0081 25.3014 32.6502 26.0236 31.9279 26.5787C30.6935 27.5283 29.4362 27.574 28.1287 26.7166C27.5234 26.3204 27.0075 25.8337 26.6213 25.2375C26.0798 24.4011 25.5603 23.5529 25.0307 22.7102C24.9723 22.6161 24.9139 22.523 24.8536 22.4271C22.6851 24.1427 19.7214 23.226 18.8339 20.9817Z" fill="#733999"/>
<path d="M8.08808 18.6434C10.0813 18.6425 11.7001 17.0346 11.6992 15.0588C11.6983 13.0354 10.084 11.4075 8.08169 11.4093C6.07937 11.4111 4.46509 13.0437 4.46692 15.0652C4.46783 17.0355 6.09672 18.6443 8.08808 18.6434Z" fill="#FC5FE3"/>
<path d="M26.9297 18.6416C28.9393 18.6425 30.5472 17.041 30.5518 15.0359C30.5564 13.04 28.9302 11.4066 26.9425 11.4093C24.9283 11.412 23.3214 13.0291 23.3223 15.0542C23.3223 17.0337 24.9393 18.6416 26.9297 18.6416Z" fill="#FC5FE3"/>
<path d="M12.8705 17.6564C11.6598 17.661 10.6856 18.6352 10.6911 19.8358C10.6965 21.0201 11.7073 22.0007 12.9079 21.9861C14.0903 21.9715 15.0673 21.0027 15.0682 19.8441C15.0691 18.6169 14.1004 17.6518 12.8705 17.6564Z" fill="#FFEB33"/>
<path d="M22.1271 17.6564C23.3324 17.6564 24.2974 18.605 24.3057 19.7984C24.3139 21.0118 23.3196 22.0007 22.1043 21.9879C20.9073 21.9751 19.9395 21.0054 19.9413 19.8203C19.9431 18.6078 20.9036 17.6564 22.1271 17.6564Z" fill="#F9FC5F"/>
<path d="M5.68384 15.8678C5.68384 15.2862 5.68384 14.7511 5.68384 14.1841C6.05088 14.1841 6.39876 14.1796 6.74572 14.1878C6.80689 14.1896 6.87902 14.2289 6.9265 14.2727C7.18307 14.5092 7.43324 14.752 7.73364 15.0397C7.43872 15.3154 7.18033 15.5619 6.91463 15.7993C6.86807 15.8404 6.78954 15.8632 6.72563 15.8641C6.38598 15.8714 6.04723 15.8678 5.68384 15.8678Z" fill="#F9FC5F"/>
<path d="M10.3213 15.8678C10.3213 15.2862 10.3213 14.7511 10.3213 14.1841C9.95423 14.1841 9.60636 14.1796 9.2594 14.1878C9.19823 14.1896 9.1261 14.2289 9.07862 14.2727C8.82205 14.5092 8.57188 14.752 8.27148 15.0397C8.5664 15.3154 8.82479 15.5619 9.09049 15.7993C9.13706 15.8404 9.21558 15.8632 9.27949 15.8641C9.61915 15.8714 9.95789 15.8678 10.3213 15.8678Z" fill="#F9FC5F"/>
<path d="M7.16583 12.7606C7.74744 12.7606 8.28249 12.7606 8.8495 12.7606C8.8495 13.1277 8.85406 13.4755 8.84585 13.8225C8.84402 13.8837 8.80476 13.9558 8.76093 14.0033C8.52445 14.2598 8.28158 14.51 7.99397 14.8104C7.71823 14.5155 7.4717 14.2571 7.23431 13.9914C7.19322 13.9448 7.1704 13.8663 7.16948 13.8024C7.16218 13.4628 7.16583 13.1231 7.16583 12.7606Z" fill="#F9FC5F"/>
<path d="M7.16583 17.2994C7.74744 17.2994 8.28249 17.2994 8.8495 17.2994C8.8495 16.9323 8.85406 16.5845 8.84585 16.2375C8.84402 16.1763 8.80476 16.1042 8.76093 16.0567C8.52445 15.8001 8.28158 15.55 7.99397 15.2496C7.71823 15.5445 7.4717 15.8029 7.23431 16.0686C7.19322 16.1151 7.1704 16.1937 7.16948 16.2576C7.16218 16.5972 7.16583 16.936 7.16583 17.2994Z" fill="#F9FC5F"/>
<path d="M27.8993 17.0045C27.8993 17.5304 27.4692 17.9632 26.9433 17.9668C26.4174 17.9705 25.98 17.5432 25.9745 17.02C25.9691 16.4795 26.4046 16.0403 26.9442 16.043C27.4674 16.044 27.8993 16.4786 27.8993 17.0045Z" fill="#F9FC5F"/>
<path d="M26.9415 12.063C27.4684 12.0657 27.8993 12.4967 27.8993 13.0208C27.8993 13.5595 27.4538 13.9968 26.9169 13.9868C26.3937 13.9777 25.9691 13.5367 25.9755 13.0117C25.981 12.4857 26.4147 12.0612 26.9415 12.063Z" fill="#F9FC5F"/>
<path d="M25.0187 14.0636C25.5446 14.0672 25.9756 14.5 25.9747 15.0241C25.9738 15.561 25.5255 15.9992 24.9895 15.9883C24.4654 15.9764 24.0436 15.5372 24.0509 15.0104C24.0573 14.4836 24.4901 14.0608 25.0187 14.0636Z" fill="#F9FC5F"/>
<path d="M28.8747 14.0517C29.3997 14.0562 29.8288 14.4899 29.827 15.0159C29.8252 15.5409 29.3924 15.9736 28.8674 15.9755C28.3305 15.9773 27.8922 15.5326 27.9023 14.9939C27.9123 14.4662 28.3442 14.0471 28.8747 14.0517Z" fill="#F9FC5F"/>
</svg>
