<svg width="32" height="33" viewBox="0 0 32 33" fill="none" xmlns="http://www.w3.org/2000/svg">
<g clip-path="url(#clip0)">
<path d="M14.6013 21.5718C16.775 20.334 18.1511 18.1038 18.282 15.606C18.4129 13.1082 17.2775 10.7464 15.245 9.28837L10.3477 5.77437C9.53528 5.19135 8.5769 4.89176 7.57698 4.90789C6.57685 4.924 5.62899 5.25456 4.83522 5.86365C4.04211 6.47323 3.47829 7.30408 3.20463 8.26635C2.93096 9.22861 2.97372 10.232 3.32783 11.1678L3.35182 11.2305C4.22273 13.5841 4.07574 16.2138 2.94584 18.4566C2.65447 19.0352 2.48993 19.6557 2.45675 20.2888C2.43871 20.633 2.45965 20.9814 2.51984 21.3285C2.69119 22.3141 3.16507 23.1994 3.89033 23.8888C4.61539 24.5777 5.52372 25.0057 6.51691 25.1265C7.5101 25.2474 8.49432 25.0496 9.3637 24.5547L14.6013 21.5718Z" fill="#61E9FC"/>
<path d="M15.3761 6.91522C15.6966 7.90106 16.4369 8.67604 17.4606 9.09732C18.4348 9.49835 19.5567 9.5285 20.62 9.18199C21.6826 8.83521 22.5712 8.14972 23.1222 7.25174C23.7009 6.30844 23.8427 5.24621 23.5214 4.26194C22.8769 2.28183 20.525 1.26539 18.2774 1.99632C16.4884 2.58052 15.2988 4.0994 15.2153 5.69366C15.1939 6.10074 15.2448 6.51275 15.3761 6.91522Z" fill="#61E9FC"/>
<path d="M19.0159 13.4261C18.8887 15.8526 21.0344 17.9446 23.7989 18.0895C26.5641 18.2344 28.9171 16.3782 29.0443 13.9517C29.1715 11.5254 27.0253 9.43362 24.2601 9.2887C21.4956 9.14382 19.143 10.9999 19.0159 13.4261Z" fill="#61E9FC"/>
<path d="M17.3859 20.9617L17.3859 20.9619C17.2424 21.3286 17.1633 21.7063 17.1434 22.0855C17.0507 23.8551 18.2483 25.6471 20.1932 26.4089C21.3127 26.8476 22.5188 26.8858 23.589 26.5165C24.7094 26.1302 25.5489 25.3493 25.9529 24.3175C26.357 23.2855 26.2709 22.1422 25.7109 21.0977C25.176 20.0999 24.2647 19.3091 23.1451 18.8709C20.7834 17.9461 18.1998 18.884 17.3859 20.9617Z" fill="#61E9FC"/>
<path d="M17.4854 30.2595L17.4861 30.2589C18.8099 28.6503 18.4053 26.1196 16.5836 24.6171C14.7608 23.1159 12.2001 23.2015 10.8755 24.8075C10.3922 25.3933 10.1387 26.1019 10.1001 26.8388C10.0328 28.1232 10.6183 29.4937 11.7769 30.4501C13.5997 31.9511 16.1604 31.8657 17.4854 30.2595Z" fill="#61E9FC"/>
</g>
<defs>
<clipPath id="clip0">
<rect width="30" height="30" fill="white" transform="translate(31.5289 2.36987) rotate(93)"/>
</clipPath>
</defs>
</svg>
