<svg width="54" height="54" viewBox="0 0 54 54" fill="none" xmlns="http://www.w3.org/2000/svg">
<g clip-path="url(#clip0)">
<path d="M25.0614 35.3458C28.6842 33.2827 30.9777 29.5658 31.1959 25.4028C31.414 21.2398 29.5216 17.3035 26.1343 14.8734L17.972 9.0167C16.618 8.045 15.0207 7.54568 13.3542 7.57255C11.6873 7.59941 10.1075 8.15035 8.78457 9.16549C7.46273 10.1815 6.52303 11.5662 6.06692 13.17C5.61081 14.7738 5.68208 16.446 6.27227 18.0057L6.31225 18.1102C7.76375 22.0329 7.51878 26.4157 5.63561 30.1537C5.14999 31.118 4.87576 32.1522 4.82046 33.2074C4.79039 33.7811 4.82529 34.3617 4.9256 34.9403C5.2112 36.583 6.001 38.0584 7.20976 39.2073C8.41819 40.3555 9.93207 41.069 11.5874 41.2703C13.2427 41.4717 14.8831 41.142 16.332 40.3172L25.0614 35.3458Z" fill="#61E9FC"/>
<path d="M26.3527 10.9181C26.887 12.5612 28.1207 13.8528 29.827 14.5549C31.4506 15.2233 33.3205 15.2736 35.0926 14.6961C36.8636 14.1181 38.3445 12.9756 39.263 11.479C40.2274 9.9068 40.4638 8.13643 39.9283 6.49597C38.854 3.19579 34.9342 1.50173 31.1883 2.71994C28.2066 3.69361 26.2239 6.22507 26.0847 8.88218C26.0491 9.56064 26.1339 10.2473 26.3527 10.9181Z" fill="#61E9FC"/>
<path d="M32.4192 21.7699C32.2072 25.8141 35.7833 29.3007 40.3909 29.5422C44.9996 29.7837 48.9213 26.69 49.1332 22.6459C49.3452 18.6021 45.7683 15.1158 41.1596 14.8742C36.552 14.6328 32.6311 17.7262 32.4192 21.7699Z" fill="#61E9FC"/>
<path d="M29.7024 34.3287L29.7024 34.3291C29.4633 34.9404 29.3314 35.5698 29.2982 36.2018C29.1437 39.1511 31.1397 42.1379 34.3812 43.4075C36.2471 44.1386 38.2573 44.2024 40.041 43.5869C41.9083 42.9429 43.3073 41.6414 43.9808 39.9218C44.6542 38.2019 44.5108 36.2962 43.5775 34.5555C42.686 32.8925 41.1671 31.5745 39.3011 30.8441C35.3649 29.3028 31.0589 30.866 29.7024 34.3287Z" fill="#61E9FC"/>
<path d="M29.8682 49.8254L29.8694 49.8243C32.0757 47.1433 31.4014 42.9255 28.3651 40.4214C25.3272 37.9194 21.0594 38.0621 18.8518 40.7387C18.0462 41.7149 17.6237 42.896 17.5593 44.1242C17.4471 46.2648 18.423 48.549 20.3541 50.1431C23.392 52.6447 27.6598 52.5024 29.8682 49.8254Z" fill="#61E9FC"/>
</g>
<defs>
<clipPath id="clip0">
<rect width="50" height="50" fill="white" transform="translate(53.2742 3.34265) rotate(93)"/>
</clipPath>
</defs>
</svg>
