<svg width="30" height="30" viewBox="0 0 30 30" fill="none" xmlns="http://www.w3.org/2000/svg">
<g clip-path="url(#clip0)">
<path d="M5.06724 22.0606C5.06724 21.923 5.07433 21.7872 5.08534 21.6523H3.78152C1.99915 21.6523 0.549133 23.1024 0.549133 24.8848V29.1211C0.549133 29.6065 0.94259 30 1.42804 30H5.21841C5.12079 29.7249 5.06724 29.4292 5.06724 29.1211V22.0606Z" fill="#62FC5F"/>
<path d="M11.3433 19.2363C11.3433 19.0988 11.3504 18.9629 11.3615 18.8281H10.0576C8.27515 18.8281 6.82507 20.2782 6.82507 22.0606V29.1211C6.82507 29.6065 7.21853 30 7.70398 30H11.4945C11.3968 29.7249 11.3433 29.4292 11.3433 29.1211V19.2363H11.3433Z" fill="#733999"/>
<path d="M24.1786 13.6142H22.6095C20.8272 13.6142 19.3771 15.0643 19.3771 16.8466V29.1211C19.3771 29.6065 19.7706 30 20.256 30H26.532C27.0173 30 27.4109 29.6065 27.4109 29.1211V16.8466C27.4109 15.0643 25.9608 13.6142 24.1786 13.6142Z" fill="#45F9A3"/>
<path d="M17.6194 16.8466C17.6194 16.5593 17.6451 16.2781 17.692 16.0039H16.3336C14.5512 16.0039 13.1012 17.4539 13.1012 19.2363V29.1211C13.1012 29.6065 13.4947 30 13.9801 30H17.7706C17.673 29.7249 17.6194 29.4292 17.6194 29.1211V16.8466Z" fill="#FF1368"/>
<path d="M29.4077 4.36904C29.3043 4.05088 29.0293 3.81896 28.6982 3.77092L25.5778 3.31758L24.1822 0.489902C24.0342 0.189902 23.7286 0 23.394 0C23.0595 0 22.754 0.189902 22.6059 0.489902L21.2104 3.31758L18.09 3.77092C17.759 3.81896 17.4839 4.05088 17.3806 4.36904C17.2771 4.68721 17.3633 5.03648 17.6029 5.27004L19.8608 7.47111L19.3277 10.5788C19.2712 10.9086 19.4068 11.2418 19.6774 11.4384C19.9481 11.6351 20.3069 11.661 20.603 11.5054L23.3941 10.0382L26.1852 11.5054C26.3138 11.573 26.4542 11.6064 26.5941 11.6064H26.5974C27.0819 11.6053 27.4743 11.2122 27.4743 10.7275C27.4743 10.66 27.4667 10.5943 27.4522 10.5311L26.9274 7.47111L29.1853 5.27004C29.4249 5.03654 29.511 4.68727 29.4077 4.36904Z" fill="#F9FC5F"/>
</g>
<defs>
<clipPath id="clip0">
<rect width="30" height="30" fill="white"/>
</clipPath>
</defs>
</svg>
