<svg xmlns="http://www.w3.org/2000/svg" fill="none" viewBox="0 0 60 60"><path fill="#733999" d="M51.2132 8.7867C45.5469 3.1205 38.0133 0 30 0 21.9866 0 14.453 3.1206 8.7867 8.7867 3.1206 14.453 0 21.9867 0 30c0 8.0134 3.1206 15.547 8.7867 21.2133C14.453 56.8794 21.9866 60 30 60c8.0133 0 15.5469-3.1206 21.2132-8.7867C56.8794 45.5469 60 38.0133 60 30c0-8.0133-3.1206-15.5469-8.7868-21.2133zm-4.2343 22.676L24.3851 46.5251a1.7561 1.7561 0 01-.9751.2953 1.7577 1.7577 0 01-1.7577-1.7578V14.9375a1.7578 1.7578 0 012.7328-1.4625l22.5938 15.0625a1.7578 1.7578 0 010 2.9252z"/></svg>